<?xml version="1.0" encoding="UTF-8"?>
<svg version="1.1" xmlns="http://www.w3.org/2000/svg" width="100" height="100">
<path d="M0 0 C33 0 66 0 100 0 C100 33 100 66 100 100 C67 100 34 100 0 100 C0 67 0 34 0 0 Z " fill="#4B4C43" transform="translate(0,0)"/>
<path d="M0 0 C0.53109375 0.34933594 1.0621875 0.69867188 1.609375 1.05859375 C2.31578125 1.51363281 3.0221875 1.96867188 3.75 2.4375 C4.44609375 2.88996094 5.1421875 3.34242188 5.859375 3.80859375 C7.94743731 4.97074522 9.67083247 5.53416649 12 6 C13.33333333 6.33333333 14.66666667 6.66666667 16 7 C16.33 6.01 16.66 5.02 17 4 C17.66 4 18.32 4 19 4 C19.33 3.34 19.66 2.68 20 2 C20 34.01 20 66.02 20 99 C-4 99 -4 99 -6 98 C-6 97.34 -6 96.68 -6 96 C-6.99 95.505 -6.99 95.505 -8 95 C-7.34 94.67 -6.68 94.34 -6 94 C-6.33 93.01 -6.66 92.02 -7 91 C-6.34 91 -5.68 91 -5 91 C-5 91.66 -5 92.32 -5 93 C-2.03 93.99 -2.03 93.99 1 95 C1.33 94.67 1.66 94.34 2 94 C2 93.34 2 92.68 2 92 C0.68 92 -0.64 92 -2 92 C-2.66 90.35 -3.32 88.7 -4 87 C-5.32 87 -6.64 87 -8 87 C-8 84.69 -8 82.38 -8 80 C-9.65 80 -11.3 80 -13 80 C-12.01 80.99 -11.02 81.98 -10 83 C-10.33 83.66 -10.66 84.32 -11 85 C-11.99 84.505 -11.99 84.505 -13 84 C-12.34 85.65 -11.68 87.3 -11 89 C-13 87.6875 -13 87.6875 -15 86 C-15 85.01 -15 84.02 -15 83 C-16.79323253 83.28187936 -18.58457126 83.5758281 -20.375 83.875 C-21.37273438 84.03742188 -22.37046875 84.19984375 -23.3984375 84.3671875 C-26.1425115 84.7958802 -26.1425115 84.7958802 -28 87 C-28.0928125 86.071875 -28.0928125 86.071875 -28.1875 85.125 C-28.828919 82.72238859 -28.828919 82.72238859 -31.5625 81.75 C-32.7690625 81.37875 -32.7690625 81.37875 -34 81 C-32.515 80.505 -32.515 80.505 -31 80 C-31.33 79.01 -31.66 78.02 -32 77 C-31.34 77 -30.68 77 -30 77 C-29.67 75.68 -29.34 74.36 -29 73 C-29.99 73 -30.98 73 -32 73 C-32.495 73.99 -32.495 73.99 -33 75 C-33 74.34 -33 73.68 -33 73 C-35.49064888 72.31292445 -37.37886292 72 -40 72 C-40 68.88742431 -39.82638376 66.89234315 -39 64 C-40.32 64 -41.64 64 -43 64 C-43.268125 63.4225 -43.53625 62.845 -43.8125 62.25 C-45.01719859 59.9674132 -46.40798115 58.0262058 -48 56 C-45.525 55.505 -45.525 55.505 -43 55 C-41 58 -41 58 -41 61 C-40.01 61 -39.02 61 -38 61 C-38.66 58.03 -39.32 55.06 -40 52 C-38.35 52.33 -36.7 52.66 -35 53 C-35.99 53.495 -35.99 53.495 -37 54 C-36.34 54.66 -35.68 55.32 -35 56 C-34.5859375 58.3828125 -34.5859375 58.3828125 -34.375 61.125 C-34.30023438 62.03507812 -34.22546875 62.94515625 -34.1484375 63.8828125 C-34.07496094 64.93082031 -34.07496094 64.93082031 -34 66 C-33.01 66.33 -32.02 66.66 -31 67 C-28.3663761 69.33263831 -27.09823565 71.01159822 -26.74609375 74.5546875 C-26.74962598 77.04844148 -26.82612899 79.51267863 -27 82 C-24.36 82 -21.72 82 -19 82 C-18.855625 81.38125 -18.71125 80.7625 -18.5625 80.125 C-18 78 -18 78 -17 76 C-16.34 76 -15.68 76 -15 76 C-15 75.01 -15 74.02 -15 73 C-16.485 73.495 -16.485 73.495 -18 74 C-17.67 72.35 -17.34 70.7 -17 69 C-14.03 68.505 -14.03 68.505 -11 68 C-11.25561323 65.6568787 -11.59270772 63.32156597 -12 61 C-12.99 60.505 -12.99 60.505 -14 60 C-13.67 58.68 -13.34 57.36 -13 56 C-12.505 57.98 -12.505 57.98 -12 60 C-11.01 59.67 -10.02 59.34 -9 59 C-8.34 60.32 -7.68 61.64 -7 63 C-7 61.68 -7 60.36 -7 59 C-6.01 59.33 -5.02 59.66 -4 60 C-3.375 62 -3.375 62 -3 64 C-2.67 64.33 -2.34 64.66 -2 65 C-1.814375 64.0409375 -1.814375 64.0409375 -1.625 63.0625 C-1.41875 62.381875 -1.2125 61.70125 -1 61 C-0.34 60.67 0.32 60.34 1 60 C1 59.01 1 58.02 1 57 C0.34 57 -0.32 57 -1 57 C-1 54.36 -1 51.72 -1 49 C-0.01 49.33 0.98 49.66 2 50 C2 50.66 2 51.32 2 52 C1.34 52 0.68 52 0 52 C0 53.32 0 54.64 0 56 C1.98 55.505 1.98 55.505 4 55 C3.67 54.01 3.34 53.02 3 52 C3.99 51.67 4.98 51.34 6 51 C3.38058783 49.25372522 1.96175123 48.61277612 -1 48 C-1 47.34 -1 46.68 -1 46 C-1.99 45.67 -2.98 45.34 -4 45 C-4.33 46.32 -4.66 47.64 -5 49 C-5.66 49 -6.32 49 -7 49 C-7.144375 48.21625 -7.28875 47.4325 -7.4375 46.625 C-7.87798925 44.03578982 -7.87798925 44.03578982 -9 42 C-8.236875 41.79375 -7.47375 41.5875 -6.6875 41.375 C-3.17770897 39.57929296 -2.47400219 37.56863688 -1 34 C-2.65 33.67 -4.3 33.34 -6 33 C-5.34 34.32 -4.68 35.64 -4 37 C-6.475 37.495 -6.475 37.495 -9 38 C-9.33 37.01 -9.66 36.02 -10 35 C-10.61875 35.66 -11.2375 36.32 -11.875 37 C-14 39 -14 39 -16 39 C-16 38.01 -16 37.02 -16 36 C-17.485 36.495 -17.485 36.495 -19 37 C-21.1875 36.0625 -21.1875 36.0625 -23 35 C-22.34 35 -21.68 35 -21 35 C-21.515625 34.443125 -22.03125 33.88625 -22.5625 33.3125 C-24 31 -24 31 -23.6875 28.25 C-23.460625 27.5075 -23.23375 26.765 -23 26 C-21.02253397 25.26919734 -19.01927511 24.60578253 -17 24 C-16.34 24.33 -15.68 24.66 -15 25 C-15 23.35 -15 21.7 -15 20 C-13.02 19.67 -11.04 19.34 -9 19 C-8.34 19.99 -7.68 20.98 -7 22 C-6.01 22 -5.02 22 -4 22 C-4.66 24.31 -5.32 26.62 -6 29 C-5.34 28.01 -4.68 27.02 -4 26 C-3.34 25.01 -2.68 24.02 -2 23 C-2.495 21.515 -2.495 21.515 -3 20 C-2.1875 16.375 -2.1875 16.375 -1 13 C-0.34 12.67 0.32 12.34 1 12 C0.505 10.515 0.505 10.515 0 9 C-2.01508358 8.26676204 -2.01508358 8.26676204 -4 8 C-3.67 7.34 -3.34 6.68 -3 6 C-3.66 6 -4.32 6 -5 6 C-5.495 5.505 -5.495 5.505 -6 5 C-6.33 5.66 -6.66 6.32 -7 7 C-7.66 7 -8.32 7 -9 7 C-9.495 5.02 -9.495 5.02 -10 3 C-6.98968256 2.06576355 -6.13349732 1.95550089 -3 3 C-2.01 2.67 -1.02 2.34 0 2 C0 1.34 0 0.68 0 0 Z " fill="#585951" transform="translate(80,1)"/>
<path d="M0 0 C1.65 0 3.3 0 5 0 C4.01 0.33 3.02 0.66 2 1 C2 5.29 2 9.58 2 14 C2.99 14 3.98 14 5 14 C4.4140625 20.15234375 4.4140625 20.15234375 4 22 C3.34 22.33 2.68 22.66 2 23 C1.88317628 29.10079449 2.1135251 35.00950112 2.87890625 41.06640625 C2.91886719 41.70449219 2.95882813 42.34257813 3 43 C2.505 43.495 2.505 43.495 2 44 C1.92741054 46.18639453 1.91626217 48.37500389 1.9375 50.5625 C1.94652344 51.76003906 1.95554688 52.95757812 1.96484375 54.19140625 C1.97644531 55.11824219 1.98804687 56.04507813 2 57 C3.485 56.505 3.485 56.505 5 56 C5 55.34 5 54.68 5 54 C6.485 53.505 6.485 53.505 8 53 C8 52.34 8 51.68 8 51 C10.3431213 51.25561323 12.67843403 51.59270772 15 52 C16 54 16 54 15.5 55.9375 C14.76397597 58.17665424 14.76397597 58.17665424 16 61 C15.34 61 14.68 61 14 61 C14.33 61.99 14.66 62.98 15 64 C16.32 64 17.64 64 19 64 C19 64.66 19 65.32 19 66 C18.01 66 17.02 66 16 66 C17.485 66.495 17.485 66.495 19 67 C19.99 66.505 19.99 66.505 21 66 C20.67 65.01 20.34 64.02 20 63 C19.01 63 18.02 63 17 63 C19.34594595 55.62702703 19.34594595 55.62702703 21 53 C22.485 52.505 22.485 52.505 24 52 C23.67 51.34 23.34 50.68 23 50 C24.875 50.3125 24.875 50.3125 27 51 C29 54 29 54 30 56 C31.485 55.505 31.485 55.505 33 55 C33.433125 55.9590625 33.433125 55.9590625 33.875 56.9375 C34.82823451 59.15206079 34.82823451 59.15206079 37 60 C37 61.65 37 63.3 37 65 C38.32 65 39.64 65 41 65 C40.67 67.31 40.34 69.62 40 72 C40.99 72 41.98 72 43 72 C44.66666667 72.66666667 46.33333333 73.33333333 48 74 C48.99 74 49.98 74 51 74 C50.505 75.670625 50.505 75.670625 50 77.375 C48.911357 80.69459717 48.911357 80.69459717 49 83 C50.45833358 84.62514468 50.45833358 84.62514468 52 86 C52.66 85.34 53.32 84.68 54 84 C54.33 84.33 54.66 84.66 55 85 C56.69141656 84.91036938 58.37959602 84.75422324 60.0625 84.5625 C60.98160156 84.46066406 61.90070312 84.35882813 62.84765625 84.25390625 C63.55792969 84.17011719 64.26820312 84.08632812 65 84 C65.99 85.65 66.98 87.3 68 89 C67.814375 88.360625 67.62875 87.72125 67.4375 87.0625 C67.293125 86.381875 67.14875 85.70125 67 85 C67.33 84.67 67.66 84.34 68 84 C67.34 82.68 66.68 81.36 66 80 C67.98 80 69.96 80 72 80 C72.33 80.99 72.66 81.98 73 83 C72.67 83.66 72.34 84.32 72 85 C72.66 85.33 73.32 85.66 74 86 C73.67 86.33 73.34 86.66 73 87 C73.61875 87.103125 74.2375 87.20625 74.875 87.3125 C77 88 77 88 79 91 C79.33 91.66 79.66 92.32 80 93 C80.66 93 81.32 93 82 93 C82.625 94.875 82.625 94.875 83 97 C82.34 97.66 81.68 98.32 81 99 C81 98.01 81 97.02 81 96 C80.38125 95.855625 79.7625 95.71125 79.125 95.5625 C77 95 77 95 75 94 C75 93.34 75 92.68 75 92 C74.34 92 73.68 92 73 92 C73.33 92.61875 73.66 93.2375 74 93.875 C75 96 75 96 75 98 C75.33 98.66 75.66 99.32 76 100 C50.92 100 25.84 100 0 100 C0 67 0 34 0 0 Z " fill="#474840" transform="translate(0,0)"/>
<path d="M0 0 C1.65 0 3.3 0 5 0 C4.01 0.33 3.02 0.66 2 1 C2 5.29 2 9.58 2 14 C2.99 14 3.98 14 5 14 C4.4140625 20.15234375 4.4140625 20.15234375 4 22 C3.34 22.33 2.68 22.66 2 23 C1.88317628 29.10079449 2.1135251 35.00950112 2.87890625 41.06640625 C2.91886719 41.70449219 2.95882813 42.34257813 3 43 C2.505 43.495 2.505 43.495 2 44 C1.92741054 46.18639453 1.91626217 48.37500389 1.9375 50.5625 C1.94652344 51.76003906 1.95554688 52.95757812 1.96484375 54.19140625 C1.97644531 55.11824219 1.98804687 56.04507813 2 57 C2.66 57 3.32 57 4 57 C3.75636719 57.83144531 3.75636719 57.83144531 3.5078125 58.6796875 C2.95071525 61.22519339 2.86722739 63.52117688 2.875 66.125 C2.87242188 66.99382812 2.86984375 67.86265625 2.8671875 68.7578125 C2.85462066 71.03719449 2.85462066 71.03719449 4 73 C5.98 72.505 5.98 72.505 8 72 C8.33 72.66 8.66 73.32 9 74 C10.98 73.505 10.98 73.505 13 73 C13 72.34 13 71.68 13 71 C12.34 70.67 11.68 70.34 11 70 C12.485 69.01 12.485 69.01 14 68 C14 68.99 14 69.98 14 71 C14.8353125 70.5978125 14.8353125 70.5978125 15.6875 70.1875 C16.450625 70.125625 17.21375 70.06375 18 70 C20.75 72.4375 20.75 72.4375 23 75 C25.40072955 72.11912454 27.47291037 69.43595166 29 66 C30.485 66.495 30.485 66.495 32 67 C32.66666667 70.33333333 33.33333333 73.66666667 34 77 C33.01 77.495 33.01 77.495 32 78 C32.99 78 33.98 78 35 78 C35.495 76.515 35.495 76.515 36 75 C35.67 76.65 35.34 78.3 35 80 C32.69 80 30.38 80 28 80 C28.37125 80.7425 28.7425 81.485 29.125 82.25 C30 85 30 85 29.375 87.1875 C27.77614865 89.29507678 26.33642974 89.83178513 24 91 C22.73195434 93.0335948 22.73195434 93.0335948 22 95 C24.475 94.01 24.475 94.01 27 93 C26.67 95.31 26.34 97.62 26 100 C17.42 100 8.84 100 0 100 C0 67 0 34 0 0 Z M2 73 C3 75 3 75 3 75 Z " fill="#42433B" transform="translate(0,0)"/>
<path d="M0 0 C0.53109375 0.34933594 1.0621875 0.69867188 1.609375 1.05859375 C2.31578125 1.51363281 3.0221875 1.96867188 3.75 2.4375 C4.44609375 2.88996094 5.1421875 3.34242188 5.859375 3.80859375 C7.94743731 4.97074522 9.67083247 5.53416649 12 6 C13.33333333 6.33333333 14.66666667 6.66666667 16 7 C16.33 6.01 16.66 5.02 17 4 C17.66 4 18.32 4 19 4 C19.33 3.34 19.66 2.68 20 2 C20 34.01 20 66.02 20 99 C18 98 18 98 17 97 C17 97.33 17 97.66 17 98 C15.02 98 13.04 98 11 98 C12.98 97.505 12.98 97.505 15 97 C15 94.03 15 91.06 15 88 C15.99 87.505 15.99 87.505 17 87 C17.495 87.99 17.495 87.99 18 89 C18.02491426 84.73161194 18.04296047 80.46326361 18.05493164 76.19482422 C18.05992785 74.74592348 18.06672709 73.29702769 18.07543945 71.84814453 C18.21381162 62.49390153 18.21381162 62.49390153 17.43359375 53.1875 C17 50 17 50 18 47 C17.34 47 16.68 47 16 47 C15.15545644 50.37817425 14.89155081 52.67465243 16 56 C15.67 55.34 15.34 54.68 15 54 C14.34 54 13.68 54 13 54 C12.34 52.02 11.68 50.04 11 48 C12.485 48.495 12.485 48.495 14 49 C13.67 48.01 13.34 47.02 13 46 C14.32 45.34 15.64 44.68 17 44 C17 42.02 17 40.04 17 38 C15.515 38.495 15.515 38.495 14 39 C14.33 40.32 14.66 41.64 15 43 C12 44 12 44 9 44 C9.66 42.68 10.32 41.36 11 40 C10.01 40 9.02 40 8 40 C8 41.65 8 43.3 8 45 C6.68 45 5.36 45 4 45 C3.4375 43.0625 3.4375 43.0625 3 41 C3.495 40.505 3.495 40.505 4 40 C3.34 39.34 2.68 38.68 2 38 C3.485 37.505 3.485 37.505 5 37 C4.34 36.34 3.68 35.68 3 35 C2.34 35 1.68 35 1 35 C1 34.01 1 33.02 1 32 C0.01 31.67 -0.98 31.34 -2 31 C-1.34 30.34 -0.68 29.68 0 29 C1.32 29 2.64 29 4 29 C4 28.34 4 27.68 4 27 C3.34 27 2.68 27 2 27 C2 25.02 2 23.04 2 21 C0.35 21.33 -1.3 21.66 -3 22 C-2.71872579 20.51882199 -2.42466268 19.04006751 -2.125 17.5625 C-1.96257812 16.73878906 -1.80015625 15.91507813 -1.6328125 15.06640625 C-1.42398438 14.38449219 -1.21515625 13.70257813 -1 13 C-0.34 12.67 0.32 12.34 1 12 C0.67 11.01 0.34 10.02 0 9 C-2.01508358 8.26676204 -2.01508358 8.26676204 -4 8 C-3.67 7.34 -3.34 6.68 -3 6 C-3.66 6 -4.32 6 -5 6 C-5.33 5.67 -5.66 5.34 -6 5 C-6.33 5.66 -6.66 6.32 -7 7 C-7.66 7 -8.32 7 -9 7 C-9.33 5.68 -9.66 4.36 -10 3 C-6.98968256 2.06576355 -6.13349732 1.95550089 -3 3 C-2.01 2.67 -1.02 2.34 0 2 C0 1.34 0 0.68 0 0 Z " fill="#5E5F55" transform="translate(80,1)"/>
<path d="M0 0 C2.875 1.5 2.875 1.5 5 4 C5.42242213 6.80188855 5.23816991 9.1419611 5 12 C6.175625 12.2165625 6.175625 12.2165625 7.375 12.4375 C10 13 10 13 12 14 C12.33 13.01 12.66 12.02 13 11 C13.66 11.33 14.32 11.66 15 12 C14.773125 12.598125 14.54625 13.19625 14.3125 13.8125 C14.209375 14.534375 14.10625 15.25625 14 16 C15.35444301 17.77190909 15.35444301 17.77190909 17 19 C16.01 19.66 15.02 20.32 14 21 C14.47086523 23.74671382 15.04510078 26.10774075 16.125 28.6875 C16.41375 29.450625 16.7025 30.21375 17 31 C16 33 16 33 12.9375 34.125 C11.968125 34.41375 10.99875 34.7025 10 35 C10 35.99 10 36.98 10 38 C10.66 38 11.32 38 12 38 C12 38.99 12 39.98 12 41 C11.34 41 10.68 41 10 41 C9.34 42.98 8.68 44.96 8 47 C5.36 47 2.72 47 0 47 C-0.03738281 46.31292969 -0.07476562 45.62585938 -0.11328125 44.91796875 C-0.17902344 44.01691406 -0.24476562 43.11585937 -0.3125 42.1875 C-0.37050781 41.29417969 -0.42851563 40.40085938 -0.48828125 39.48046875 C-1.07122445 36.65475171 -1.89983712 35.87494434 -4 34 C-4 33.34 -4 32.68 -4 32 C-5.32 31.67 -6.64 31.34 -8 31 C-8.09380129 25.84092931 -7.81702861 21.06688044 -6.92578125 15.98046875 C-7.02540976 13.32196054 -8.13244737 12.796812 -10 11 C-10.60969182 8.27561131 -10.50806111 5.74010487 -10 3 C-7.20219998 -0.44344618 -4.25472272 -0.60781753 0 0 Z " fill="#484A41" transform="translate(53,36)"/>
<path d="M0 0 C0.66 0.99 1.32 1.98 2 3 C2.99 3 3.98 3 5 3 C4.34 5.31 3.68 7.62 3 10 C4.97243667 7.24250892 4.97243667 7.24250892 5.875 4.9375 C7.24405488 2.57968326 8.50889277 1.99644289 11 1 C12.33332095 3.6666419 11.67102033 5.16680303 11 8 C11.66 8 12.32 8 13 8 C13 8.66 13 9.32 13 10 C11.35 10.66 9.7 11.32 8 12 C8.804375 12.2475 9.60875 12.495 10.4375 12.75 C13 14 13 14 13.9375 16 C13.958125 16.66 13.97875 17.32 14 18 C13.34 18.66 12.68 19.32 12 20 C12.66 20 13.32 20 14 20 C14 20.66 14 21.32 14 22 C13.34 22 12.68 22 12 22 C13.36983503 25.16115776 13.9890638 25.9927092 17 28 C19.30158173 33.11462606 19.5851259 38.47562376 20 44 C20.99 44.33 21.98 44.66 23 45 C22.7215625 45.7734375 22.7215625 45.7734375 22.4375 46.5625 C21.73453816 50.47900167 22.21507084 54.43014168 24 58 C22.68 58 21.36 58 20 58 C19.505 55.03 19.505 55.03 19 52 C18.34 52 17.68 52 17 52 C17 51.34 17 50.68 17 50 C17.66 49.67 18.32 49.34 19 49 C18.505 48.54625 18.01 48.0925 17.5 47.625 C16 46 16 46 16 44 C12.9083091 46.52956528 12.09068668 49.22454612 11 53 C10.34 53 9.68 53 9 53 C8.505 50.525 8.505 50.525 8 48 C7.67 48.99 7.34 49.98 7 51 C6.01 49.68 5.02 48.36 4 47 C5.32 46.34 6.64 45.68 8 45 C8 43.68 8 42.36 8 41 C8.66 41 9.32 41 10 41 C10 40.01 10 39.02 10 38 C9.34 38 8.68 38 8 38 C8 35.36 8 32.72 8 30 C8.99 30.33 9.98 30.66 11 31 C11 31.66 11 32.32 11 33 C10.34 33 9.68 33 9 33 C9 34.32 9 35.64 9 37 C10.98 36.505 10.98 36.505 13 36 C12.67 35.01 12.34 34.02 12 33 C13.485 32.505 13.485 32.505 15 32 C12.38058783 30.25372522 10.96175123 29.61277612 8 29 C8 28.34 8 27.68 8 27 C7.01 26.67 6.02 26.34 5 26 C4.67 27.32 4.34 28.64 4 30 C3.34 30 2.68 30 2 30 C1.855625 29.21625 1.71125 28.4325 1.5625 27.625 C1.12201075 25.03578982 1.12201075 25.03578982 0 23 C0.763125 22.79375 1.52625 22.5875 2.3125 22.375 C5.82229103 20.57929296 6.52599781 18.56863688 8 15 C5.525 14.505 5.525 14.505 3 14 C3.66 15.32 4.32 16.64 5 18 C3.35 18.33 1.7 18.66 0 19 C-0.33 18.01 -0.66 17.02 -1 16 C-1.928125 16.99 -1.928125 16.99 -2.875 18 C-5 20 -5 20 -7 20 C-7 19.01 -7 18.02 -7 17 C-7.99 17.33 -8.98 17.66 -10 18 C-12.1875 17.0625 -12.1875 17.0625 -14 16 C-13.34 16 -12.68 16 -12 16 C-12.515625 15.443125 -13.03125 14.88625 -13.5625 14.3125 C-15 12 -15 12 -14.6875 9.25 C-14.460625 8.5075 -14.23375 7.765 -14 7 C-12.02253397 6.26919734 -10.01927511 5.60578253 -8 5 C-7.34 5.33 -6.68 5.66 -6 6 C-6 4.35 -6 2.7 -6 1 C-3 0 -3 0 0 0 Z " fill="#5C5D55" transform="translate(71,20)"/>
<path d="M0 0 C2.1640625 -0.29296875 2.1640625 -0.29296875 4.625 -0.1875 C5.44226562 -0.16042969 6.25953125 -0.13335938 7.1015625 -0.10546875 C8.04128906 -0.05326172 8.04128906 -0.05326172 9 0 C9.66 2.31 10.32 4.62 11 7 C12.65 7.33 14.3 7.66 16 8 C16 8.99 16 9.98 16 11 C17.98 9.35 19.96 7.7 22 6 C22.99 7.485 22.99 7.485 24 9 C25.32 9 26.64 9 28 9 C27.34 8.67 26.68 8.34 26 8 C26 7.01 26 6.02 26 5 C27.65 5 29.3 5 31 5 C31.495 5.99 31.495 5.99 32 7 C30.62606995 10.66381347 29.8552323 12.56243929 26.3125 14.375 C25.549375 14.58125 24.78625 14.7875 24 15 C24.350625 15.61875 24.70125 16.2375 25.0625 16.875 C25.371875 17.57625 25.68125 18.2775 26 19 C25.67 19.66 25.34 20.32 25 21 C25.66 21 26.32 21 27 21 C27.33 19.68 27.66 18.36 28 17 C29.9375 17.3125 29.9375 17.3125 32 18 C32.495 19.485 32.495 19.485 33 21 C33.99 20.67 34.98 20.34 36 20 C36.99 20.99 37.98 21.98 39 23 C38.34 23.66 37.68 24.32 37 25 C36.505 25.53625 36.01 26.0725 35.5 26.625 C34 28 34 28 32 28 C32 26.68 32 25.36 32 24 C32.66 24 33.32 24 34 24 C34 23.34 34 22.68 34 22 C33.34 22 32.68 22 32 22 C31.67 24.31 31.34 26.62 31 29 C31.66 29 32.32 29 33 29 C32.7215625 30.670625 32.7215625 30.670625 32.4375 32.375 C31.68319343 35.82568861 31.68319343 35.82568861 33 38 C31.02 38 29.04 38 27 38 C27 36 27 36 28 35 C27.34 34.01 26.68 33.02 26 32 C25.67 33.65 25.34 35.3 25 37 C24.731875 36.360625 24.46375 35.72125 24.1875 35.0625 C23.11332248 32.66868314 23.11332248 32.66868314 20 32 C19.67 29.69 19.34 27.38 19 25 C19.66 25 20.32 25 21 25 C20.505 24.566875 20.01 24.13375 19.5 23.6875 C18 22 18 22 18 19 C17.67 19.66 17.34 20.32 17 21 C14.36 20.67 11.72 20.34 9 20 C9.06960937 19.07767578 9.06960937 19.07767578 9.140625 18.13671875 C9.48552321 13.22846286 9.48552321 13.22846286 7.5 8.9375 C3.88098213 7.5803683 0.85495364 7.80725232 -3 8 C-2.45276317 4.62537285 -1.9451 2.91765 0 0 Z " fill="#4F5148" transform="translate(48,29)"/>
<path d="M0 0 C1.65 0.33 3.3 0.66 5 1 C4.01 1.495 4.01 1.495 3 2 C3.66 2.66 4.32 3.32 5 4 C5.4140625 6.3828125 5.4140625 6.3828125 5.625 9.125 C5.69976562 10.03507812 5.77453125 10.94515625 5.8515625 11.8828125 C5.90054688 12.58148438 5.94953125 13.28015625 6 14 C6.99 14.33 7.98 14.66 9 15 C11.6336239 17.33263831 12.90176435 19.01159822 13.25390625 22.5546875 C13.25037402 25.04844148 13.17387101 27.51267863 13 30 C15.64 30 18.28 30 21 30 C21.2165625 29.071875 21.2165625 29.071875 21.4375 28.125 C22 26 22 26 23 24 C23.66 24 24.32 24 25 24 C25 23.01 25 22.02 25 21 C24.01 21.33 23.02 21.66 22 22 C22.33 20.35 22.66 18.7 23 17 C24.98 16.67 26.96 16.34 29 16 C28.74438677 13.6568787 28.40729228 11.32156597 28 9 C27.34 8.67 26.68 8.34 26 8 C26.33 6.68 26.66 5.36 27 4 C27.495 5.98 27.495 5.98 28 8 C28.99 7.67 29.98 7.34 31 7 C31.66 8.32 32.32 9.64 33 11 C33 9.68 33 8.36 33 7 C33.99 7.33 34.98 7.66 36 8 C36.6875 10.0625 36.6875 10.0625 37 12 C36.34 12 35.68 12 35 12 C35 12.66 35 13.32 35 14 C34.34 14 33.68 14 33 14 C33 14.99 33 15.98 33 17 C33.99 17.33 34.98 17.66 36 18 C36 20.31 36 22.62 36 25 C33.03312999 26.64826111 30.34373475 27.44271087 27 28 C27.99 28.99 28.98 29.98 30 31 C29.67 31.66 29.34 32.32 29 33 C28.01 32.505 28.01 32.505 27 32 C27.66 33.65 28.32 35.3 29 37 C27 35.6875 27 35.6875 25 34 C25 33.01 25 32.02 25 31 C23.20676747 31.28187936 21.41542874 31.5758281 19.625 31.875 C18.12839844 32.11863281 18.12839844 32.11863281 16.6015625 32.3671875 C13.8574885 32.7958802 13.8574885 32.7958802 12 35 C11.938125 34.38125 11.87625 33.7625 11.8125 33.125 C11.171081 30.72238859 11.171081 30.72238859 8.4375 29.75 C7.633125 29.5025 6.82875 29.255 6 29 C6.99 28.67 7.98 28.34 9 28 C8.67 27.01 8.34 26.02 8 25 C8.66 25 9.32 25 10 25 C10.33 23.68 10.66 22.36 11 21 C10.01 21 9.02 21 8 21 C7.67 21.66 7.34 22.32 7 23 C7 22.34 7 21.68 7 21 C4.50935112 20.31292445 2.62113708 20 0 20 C0 16.88742431 0.17361624 14.89234315 1 12 C-0.32 12 -1.64 12 -3 12 C-3.268125 11.4225 -3.53625 10.845 -3.8125 10.25 C-5.01719859 7.9674132 -6.40798115 6.0262058 -8 4 C-6.35 3.67 -4.7 3.34 -3 3 C-1 6 -1 6 -1 9 C-0.01 9 0.98 9 2 9 C1.34 6.03 0.68 3.06 0 0 Z " fill="#54554D" transform="translate(40,53)"/>
<path d="M0 0 C2.39614126 -0.05425226 4.79103853 -0.09379027 7.1875 -0.125 C8.19780273 -0.15013672 8.19780273 -0.15013672 9.22851562 -0.17578125 C13.33147256 -0.2158101 16.28001466 0.32171176 20 2 C20.99 2 21.98 2 23 2 C23.680625 3.7015625 23.680625 3.7015625 24.375 5.4375 C25.57095806 9.04721692 25.57095806 9.04721692 28 10 C26.5839401 10.79275148 25.16712447 11.58415312 23.75 12.375 C22.96109375 12.81585938 22.1721875 13.25671875 21.359375 13.7109375 C19.26085803 14.85747823 17.1463923 15.94649552 15 17 C14.01 16.01 13.02 15.02 12 14 C11.67 15.32 11.34 16.64 11 18 C10.34 17.34 9.68 16.68 9 16 C9.66 15.01 10.32 14.02 11 13 C10.01 13 9.02 13 8 13 C7.34 12.34 6.68 11.68 6 11 C3.33050591 10.75684344 3.33050591 10.75684344 0.375 10.875 C-0.62789062 10.89304687 -1.63078125 10.91109375 -2.6640625 10.9296875 C-3.82035156 10.96449219 -3.82035156 10.96449219 -5 11 C-4.67 12.32 -4.34 13.64 -4 15 C-5.9375 14.1875 -5.9375 14.1875 -8 13 C-8.33 12.01 -8.66 11.02 -9 10 C-8.67 9.34 -8.34 8.68 -8 8 C-8.39938767 5.90178785 -8.39938767 5.90178785 -9 4 C-7.25 2.4375 -7.25 2.4375 -5 1 C-2.8125 1.1875 -2.8125 1.1875 -1 2 C-0.67 2.66 -0.34 3.32 0 4 C0 2.68 0 1.36 0 0 Z " fill="#5A5C53" transform="translate(45,0)"/>
<path d="M0 0 C0.53109375 0.34933594 1.0621875 0.69867188 1.609375 1.05859375 C2.31578125 1.51363281 3.0221875 1.96867188 3.75 2.4375 C4.44609375 2.88996094 5.1421875 3.34242188 5.859375 3.80859375 C7.92957014 4.9608009 9.68696324 5.54676982 12 6 C11.67 6.99 11.34 7.98 11 9 C9.35 9.33 7.7 9.66 6 10 C6 10.66 6 11.32 6 12 C5.34 12 4.68 12 4 12 C3.60746746 16.44870215 4.84694043 19.14243493 7 23 C7.66 22.34 8.32 21.68 9 21 C9.66 21.99 10.32 22.98 11 24 C11.66 23.34 12.32 22.68 13 22 C15.08995502 25.44227886 15.08995502 25.44227886 14.6875 27.9375 C14.460625 28.618125 14.23375 29.29875 14 30 C13.65939189 31.66519519 13.32441604 33.33157466 13 35 C12.01 35 11.02 35 10 35 C10 34.01 10 33.02 10 32 C9.01 32 8.02 32 7 32 C7.34786708 33.97536745 7.34786708 33.97536745 8 36 C8.66 36.33 9.32 36.66 10 37 C11.625 38.4375 11.625 38.4375 13 40 C13 40.66 13 41.32 13 42 C13.66 42.33 14.32 42.66 15 43 C12 44 12 44 9 44 C9.66 42.68 10.32 41.36 11 40 C10.01 40 9.02 40 8 40 C8 41.65 8 43.3 8 45 C6.68 45 5.36 45 4 45 C3.4375 43.0625 3.4375 43.0625 3 41 C3.495 40.505 3.495 40.505 4 40 C3.34 39.34 2.68 38.68 2 38 C3.485 37.505 3.485 37.505 5 37 C4.34 36.34 3.68 35.68 3 35 C2.34 35 1.68 35 1 35 C1 34.01 1 33.02 1 32 C0.01 31.67 -0.98 31.34 -2 31 C-1.34 30.34 -0.68 29.68 0 29 C1.32 29 2.64 29 4 29 C4 28.34 4 27.68 4 27 C3.34 27 2.68 27 2 27 C2 25.02 2 23.04 2 21 C0.35 21.33 -1.3 21.66 -3 22 C-2.71872579 20.51882199 -2.42466268 19.04006751 -2.125 17.5625 C-1.96257812 16.73878906 -1.80015625 15.91507813 -1.6328125 15.06640625 C-1.42398438 14.38449219 -1.21515625 13.70257813 -1 13 C-0.34 12.67 0.32 12.34 1 12 C0.67 11.01 0.34 10.02 0 9 C-2.01508358 8.26676204 -2.01508358 8.26676204 -4 8 C-3.67 7.34 -3.34 6.68 -3 6 C-3.66 6 -4.32 6 -5 6 C-5.33 5.67 -5.66 5.34 -6 5 C-6.33 5.66 -6.66 6.32 -7 7 C-7.66 7 -8.32 7 -9 7 C-9.33 5.68 -9.66 4.36 -10 3 C-6.98968256 2.06576355 -6.13349732 1.95550089 -3 3 C-2.01 2.67 -1.02 2.34 0 2 C0 1.34 0 0.68 0 0 Z " fill="#636459" transform="translate(80,1)"/>
<path d="M0 0 C2.875 1.5625 2.875 1.5625 5 4 C5.54226552 8.41559065 5.48836965 10.26744552 3 14 C2.34 14 1.68 14 1 14 C1.144375 14.80824219 1.28875 15.61648437 1.4375 16.44921875 C1.623125 17.51785156 1.80875 18.58648437 2 19.6875 C2.185625 20.74324219 2.37125 21.79898438 2.5625 22.88671875 C3 26 3 26 3 31 C-0.63 31 -4.26 31 -8 31 C-8.09380129 25.84092931 -7.81702861 21.06688044 -6.92578125 15.98046875 C-7.02540976 13.32196054 -8.13244737 12.796812 -10 11 C-10.60969182 8.27561131 -10.50806111 5.74010487 -10 3 C-7.20219998 -0.44344618 -4.25472272 -0.60781753 0 0 Z " fill="#171813" transform="translate(53,36)"/>
<path d="M0 0 C2.97 0 5.94 0 9 0 C8.01 0.495 8.01 0.495 7 1 C7.34227572 3.97065509 7.34227572 3.97065509 8 7 C8.66 7.33 9.32 7.66 10 8 C9.67 8.99 9.34 9.98 9 11 C8.34 11 7.68 11 7 11 C7.66 11.33 8.32 11.66 9 12 C9.625 14.5625 9.625 14.5625 10 17 C10.33 16.01 10.66 15.02 11 14 C11.33 14.66 11.66 15.32 12 16 C12.99 16.33 13.98 16.66 15 17 C14.67 17.99 14.34 18.98 14 20 C14.88319294 23.15020361 14.88319294 23.15020361 16 26 C14.02 26.66 12.04 27.32 10 28 C9.34 26.35 8.68 24.7 8 23 C7.01 23 6.02 23 5 23 C5.66 23.99 6.32 24.98 7 26 C7 26.99 7 27.98 7 29 C6.01 28.34 5.02 27.68 4 27 C4 26.34 4 25.68 4 25 C1.525 24.01 1.525 24.01 -1 23 C-1 22.01 -1 21.02 -1 20 C-0.34 20 0.32 20 1 20 C0.525625 19.0925 0.05125 18.185 -0.4375 17.25 C-1.64628821 14.73572051 -2.47993886 12.70431791 -3 10 C-2.01 9.67 -1.02 9.34 0 9 C0.33 8.34 0.66 7.68 1 7 C-0.32 6.34 -1.64 5.68 -3 5 C-2.01 4.67 -1.02 4.34 0 4 C0 2.68 0 1.36 0 0 Z " fill="#55564E" transform="translate(6,1)"/>
<path d="M0 0 C0.33 1.32 0.66 2.64 1 4 C1.99 4 2.98 4 4 4 C4 5.32 4 6.64 4 8 C4.33 7.01 4.66 6.02 5 5 C5.99 5.33 6.98 5.66 8 6 C8 6.99 8 7.98 8 9 C8.66 9 9.32 9 10 9 C9.34 11.31 8.68 13.62 8 16 C6.68 15.34 5.36 14.68 4 14 C4 13.34 4 12.68 4 12 C3.34 12 2.68 12 2 12 C1.67 13.65 1.34 15.3 1 17 C-0.32 17.33 -1.64 17.66 -3 18 C-3 17.01 -3 16.02 -3 15 C-3.763125 14.773125 -4.52625 14.54625 -5.3125 14.3125 C-9.63051361 12.20370266 -10.61457866 9.07512269 -12.1875 4.6875 C-12.455625 3.800625 -12.72375 2.91375 -13 2 C-12 1 -12 1 -9.53125 0.9375 C-7.51041667 0.97916667 -5.48958333 1.02083333 -3.46875 1.0625 C-1.05541144 1.28507296 -1.05541144 1.28507296 0 0 Z " fill="#4C4D44" transform="translate(52,9)"/>
<path d="M0 0 C0.33 0 0.66 0 1 0 C1 32.01 1 64.02 1 97 C-1 96 -1 96 -2 95 C-2 95.33 -2 95.66 -2 96 C-3.98 96 -5.96 96 -8 96 C-6.02 95.505 -6.02 95.505 -4 95 C-4 92.03 -4 89.06 -4 86 C-3.01 85.505 -3.01 85.505 -2 85 C-1.67 85.66 -1.34 86.32 -1 87 C-0.97508574 82.73161194 -0.95703953 78.46326361 -0.94506836 74.19482422 C-0.94007215 72.74592348 -0.93327291 71.29702769 -0.92456055 69.84814453 C-0.78618838 60.49390153 -0.78618838 60.49390153 -1.56640625 51.1875 C-2 48 -2 48 -1 45 C-1.66 45 -2.32 45 -3 45 C-3.84454356 48.37817425 -4.10844919 50.67465243 -3 54 C-3.33 53.34 -3.66 52.68 -4 52 C-4.66 52 -5.32 52 -6 52 C-6.66 50.02 -7.32 48.04 -8 46 C-7.01 46.33 -6.02 46.66 -5 47 C-5.495 45.515 -5.495 45.515 -6 44 C-5.35546875 43.76023438 -4.7109375 43.52046875 -4.046875 43.2734375 C-1.840637 42.20701281 -1.840637 42.20701281 -1.390625 40.1015625 C-1.01731127 33.52709301 -0.91005368 26.95924917 -0.875 20.375 C-0.87016602 19.47346191 -0.86533203 18.57192383 -0.86035156 17.64306641 C-0.86260742 16.79921387 -0.86486328 15.95536133 -0.8671875 15.0859375 C-0.86887939 13.9419751 -0.86887939 13.9419751 -0.87060547 12.77490234 C-0.8074084 10.97465097 -0.8074084 10.97465097 -2 10 C-2.66 10.66 -3.32 11.32 -4 12 C-4.99 10.02 -5.98 8.04 -7 6 C-6.360625 5.71125 -5.72125 5.4225 -5.0625 5.125 C-2.84793921 4.17176549 -2.84793921 4.17176549 -2 2 C-1.34 2 -0.68 2 0 2 C0 1.34 0 0.68 0 0 Z " fill="#6D6F65" transform="translate(99,3)"/>
<path d="M0 0 C0.44730469 0.39832031 0.89460937 0.79664063 1.35546875 1.20703125 C4.12484641 3.63392724 6.62534587 5.79638363 9.875 7.5625 C12 9 12 9 12.8125 11.6875 C12.874375 12.450625 12.93625 13.21375 13 14 C12.1028125 14.2784375 12.1028125 14.2784375 11.1875 14.5625 C7.90018201 16.72273753 7.35145313 19.35107655 6 23 C7.32 23.66 8.64 24.32 10 25 C9.67 25.99 9.34 26.98 9 28 C7.35 28.33 5.7 28.66 4 29 C4 28.34 4 27.68 4 27 C4.99 27 5.98 27 7 27 C5.02 26.34 3.04 25.68 1 25 C1.33 24.01 1.66 23.02 2 22 C2.66 22 3.32 22 4 22 C4 21.34 4 20.68 4 20 C3.34 19.67 2.68 19.34 2 19 C2.33 17.35 2.66 15.7 3 14 C1.35 14 -0.3 14 -2 14 C-2 13.34 -2 12.68 -2 12 C-2.66 12 -3.32 12 -4 12 C-3.67 13.65 -3.34 15.3 -3 17 C-3.33 16.34 -3.66 15.68 -4 15 C-4.99 15 -5.98 15 -7 15 C-6.67 15.99 -6.34 16.98 -6 18 C-6.66 18.33 -7.32 18.66 -8 19 C-8.66 18.67 -9.32 18.34 -10 18 C-9.6875 15.625 -9.6875 15.625 -9 13 C-8.01 12.34 -7.02 11.68 -6 11 C-5.67 10.34 -5.34 9.68 -5 9 C-3.35 9.33 -1.7 9.66 0 10 C-0.37125 9.46375 -0.7425 8.9275 -1.125 8.375 C-2.34857383 5.05387103 -1.30463011 3.18909583 0 0 Z " fill="#54544B" transform="translate(12,39)"/>
<path d="M0 0 C1.65 0 3.3 0 5 0 C4.01 0.33 3.02 0.66 2 1 C2 5.29 2 9.58 2 14 C2.99 14 3.98 14 5 14 C4.4140625 20.15234375 4.4140625 20.15234375 4 22 C3.34 22.33 2.68 22.66 2 23 C1.88317628 29.10079449 2.1135251 35.00950112 2.87890625 41.06640625 C2.91886719 41.70449219 2.95882813 42.34257813 3 43 C2.505 43.495 2.505 43.495 2 44 C1.92741054 46.18639453 1.91626217 48.37500389 1.9375 50.5625 C1.94652344 51.76003906 1.95554688 52.95757812 1.96484375 54.19140625 C1.97644531 55.11824219 1.98804687 56.04507813 2 57 C2.66 57 3.32 57 4 57 C3.75636719 57.83144531 3.75636719 57.83144531 3.5078125 58.6796875 C2.95071525 61.22519339 2.86722739 63.52117688 2.875 66.125 C2.87242188 66.99382812 2.86984375 67.86265625 2.8671875 68.7578125 C2.85462066 71.03719449 2.85462066 71.03719449 4 73 C5.98 72.505 5.98 72.505 8 72 C7.67 73.65 7.34 75.3 7 77 C5.02 77.495 5.02 77.495 3 78 C2.83197949 79.45817797 2.66562857 80.9165484 2.5 82.375 C2.4071875 83.18710938 2.314375 83.99921875 2.21875 84.8359375 C1.96647649 86.96912825 1.96647649 86.96912825 2 89 C1.34 89 0.68 89 0 89 C0 59.63 0 30.26 0 0 Z M2 73 C3 75 3 75 3 75 Z " fill="#36372F" transform="translate(0,0)"/>
<path d="M0 0 C0.99 0.66 1.98 1.32 3 2 C3.42905061 5.94726562 3.08466413 8.61242079 1 12 C2.65 11.67 4.3 11.34 6 11 C7.32 12.65 8.64 14.3 10 16 C10.33 15.01 10.66 14.02 11 13 C12.485 13.495 12.485 13.495 14 14 C14.495 15.98 14.495 15.98 15 18 C3.45 18 -8.1 18 -20 18 C-20 17.67 -20 17.34 -20 17 C-18.906875 16.855625 -17.81375 16.71125 -16.6875 16.5625 C-13.06877013 16.11711896 -13.06877013 16.11711896 -10 15 C-10 14.34 -10 13.68 -10 13 C-8.68 13 -7.36 13 -6 13 C-6.33 12.01 -6.66 11.02 -7 10 C-6.01 9.34 -5.02 8.68 -4 8 C-3.30643577 5.67451993 -2.63850788 3.34119555 -2 1 C-1.34 0.67 -0.68 0.34 0 0 Z M0 4 C-0.66 4.66 -1.32 5.32 -2 6 C-1.67 6.99 -1.34 7.98 -1 9 C-0.34 8.34 0.32 7.68 1 7 C0.67 6.01 0.34 5.02 0 4 Z " fill="#41433A" transform="translate(47,82)"/>
<path d="M0 0 C0.66 0.99 1.32 1.98 2 3 C2.99 3 3.98 3 5 3 C4.34 5.31 3.68 7.62 3 10 C4.97243667 7.24250892 4.97243667 7.24250892 5.875 4.9375 C7.24405488 2.57968326 8.50889277 1.99644289 11 1 C12.33332095 3.6666419 11.67102033 5.16680303 11 8 C11.66 8 12.32 8 13 8 C13 8.66 13 9.32 13 10 C11.93458984 10.18175781 11.93458984 10.18175781 10.84765625 10.3671875 C9.92855469 10.53476562 9.00945312 10.70234375 8.0625 10.875 C6.68771484 11.11863281 6.68771484 11.11863281 5.28515625 11.3671875 C4.53105469 11.57601563 3.77695313 11.78484375 3 12 C2.67 12.66 2.34 13.32 2 14 C0 13 0 13 -1 10 C-1.66 10 -2.32 10 -3 10 C-3.66 11.65 -4.32 13.3 -5 15 C-7.4375 14.625 -7.4375 14.625 -10 14 C-10.33 13.34 -10.66 12.68 -11 12 C-10.67 11.34 -10.34 10.68 -10 10 C-10.66 9.67 -11.32 9.34 -12 9 C-11.01 9 -10.02 9 -9 9 C-9 8.01 -9 7.02 -9 6 C-8.01 6 -7.02 6 -6 6 C-6 4.35 -6 2.7 -6 1 C-3 0 -3 0 0 0 Z " fill="#62645B" transform="translate(71,20)"/>
<path d="M0 0 C0.66 0 1.32 0 2 0 C3.38232443 1.62626404 4.71937515 3.2925002 6 5 C5.67 5.66 5.34 6.32 5 7 C4.34 6.67 3.68 6.34 3 6 C3 6.66 3 7.32 3 8 C3.66 8.33 4.32 8.66 5 9 C2.03 8.505 2.03 8.505 -1 8 C-1.33 8.66 -1.66 9.32 -2 10 C-2.66 9.01 -3.32 8.02 -4 7 C-2.68 4.69 -1.36 2.38 0 0 Z M-12 3 C-10.8553125 3.495 -10.8553125 3.495 -9.6875 4 C-7.00930865 5.17436686 -7.00930865 5.17436686 -4 5 C-4.33 6.32 -4.66 7.64 -5 9 C-4.34 9 -3.68 9 -3 9 C-2.3125 10.8125 -2.3125 10.8125 -2 13 C-3.4375 14.75 -3.4375 14.75 -5 16 C-5.33 14.02 -5.66 12.04 -6 10 C-6.33 10.33 -6.66 10.66 -7 11 C-6.34 13.31 -5.68 15.62 -5 18 C-2.9254644 18.1490712 -2.9254644 18.1490712 -1 17 C0.125 20.75 0.125 20.75 -1 23 C-0.34 23.66 0.32 24.32 1 25 C0.34 25 -0.32 25 -1 25 C-1 25.66 -1 26.32 -1 27 C-1.99 27.33 -2.98 27.66 -4 28 C-4 27.34 -4 26.68 -4 26 C-4.99 25.67 -5.98 25.34 -7 25 C-6.01 24.67 -5.02 24.34 -4 24 C-4.99 23.34 -5.98 22.68 -7 22 C-7 21.34 -7 20.68 -7 20 C-7.99 19.34 -8.98 18.68 -10 18 C-10 17.34 -10 16.68 -10 16 C-10.99 15.67 -11.98 15.34 -13 15 C-12.34 14.34 -11.68 13.68 -11 13 C-10.67 13 -10.34 13 -10 13 C-10 11.02 -10 9.04 -10 7 C-10.66 6.67 -11.32 6.34 -12 6 C-12 5.01 -12 4.02 -12 3 Z " fill="#505149" transform="translate(85,64)"/>
<path d="M0 0 C0.66 0 1.32 0 2 0 C2.433125 1.11375 2.86625 2.2275 3.3125 3.375 C4.69911119 7.17512334 4.69911119 7.17512334 8 9 C8.6875 11.125 8.6875 11.125 9 13 C6.42357133 15.11635213 4.37494032 16.67339287 1 17 C0.01 16.34 -0.98 15.68 -2 15 C-4.06381575 15.32843384 -4.06381575 15.32843384 -6 16 C-6.66 16 -7.32 16 -8 16 C-8.66 16.33 -9.32 16.66 -10 17 C-10.33 16.01 -10.66 15.02 -11 14 C-10.34 14 -9.68 14 -9 14 C-8.67 11.69 -8.34 9.38 -8 7 C-6.68 7.33 -5.36 7.66 -4 8 C-4 8.99 -4 9.98 -4 11 C-3.319375 9.5459375 -3.319375 9.5459375 -2.625 8.0625 C-1 5 -1 5 1 4 C0.67 2.68 0.34 1.36 0 0 Z " fill="#41423A" transform="translate(30,6)"/>
<path d="M0 0 C0.144375 0.639375 0.28875 1.27875 0.4375 1.9375 C0.81007181 3.97545146 0.81007181 3.97545146 2 5 C2.33 4.01 2.66 3.02 3 2 C3.33 2.66 3.66 3.32 4 4 C4.99 4.33 5.98 4.66 7 5 C6.67 5.99 6.34 6.98 6 8 C6.88319294 11.15020361 6.88319294 11.15020361 8 14 C6.02 14.66 4.04 15.32 2 16 C1.34 14.35 0.68 12.7 0 11 C-0.99 11 -1.98 11 -3 11 C-2.01 12.485 -2.01 12.485 -1 14 C-1 14.99 -1 15.98 -1 17 C-1.99 16.34 -2.98 15.68 -4 15 C-4 14.34 -4 13.68 -4 13 C-6.475 12.01 -6.475 12.01 -9 11 C-9 10.01 -9 9.02 -9 8 C-8.34 8 -7.68 8 -7 8 C-6.67 7.01 -6.34 6.02 -6 5 C-5.01 5 -4.02 5 -3 5 C-2.690625 4.360625 -2.38125 3.72125 -2.0625 3.0625 C-1 1 -1 1 0 0 Z " fill="#51524A" transform="translate(14,13)"/>
<path d="M0 0 C0.99 0.33 1.98 0.66 3 1 C3 1.66 3 2.32 3 3 C2.34 3 1.68 3 1 3 C1 4.32 1 5.64 1 7 C2.32 6.67 3.64 6.34 5 6 C4.67 5.01 4.34 4.02 4 3 C5.98 3.66 7.96 4.32 10 5 C10 9.29 10 13.58 10 18 C9.34 16.68 8.68 15.36 8 14 C4.9083091 16.52956528 4.09068668 19.22454612 3 23 C2.34 23 1.68 23 1 23 C0.67 21.35 0.34 19.7 0 18 C-0.33 18.99 -0.66 19.98 -1 21 C-1.99 19.68 -2.98 18.36 -4 17 C-2.68 16.34 -1.36 15.68 0 15 C0 13.68 0 12.36 0 11 C0.66 11 1.32 11 2 11 C2 10.01 2 9.02 2 8 C1.34 8 0.68 8 0 8 C0 5.36 0 2.72 0 0 Z " fill="#5B5C54" transform="translate(79,50)"/>
<path d="M0 0 C0.33 0 0.66 0 1 0 C1 1.65 1 3.3 1 5 C2.98 4.67 4.96 4.34 7 4 C7 5.98 7 7.96 7 10 C7.99 10.33 8.98 10.66 10 11 C7.31158141 13.25245881 5.35358125 14.88213958 2 16 C1.01 15.01 0.02 14.02 -1 13 C-1.33 14.32 -1.66 15.64 -2 17 C-2.66 16.34 -3.32 15.68 -4 15 C-3.34 14.01 -2.68 13.02 -2 12 C-2.99 12 -3.98 12 -5 12 C-5.70074844 8.846632 -6 6.27275026 -6 3 C-4.35 3 -2.7 3 -1 3 C-0.67 2.01 -0.34 1.02 0 0 Z " fill="#5A5B53" transform="translate(58,1)"/>
<path d="M0 0 C0.66 0 1.32 0 2 0 C2.20625 0.9075 2.4125 1.815 2.625 2.75 C4.32927756 6.77829242 6.34675205 7.74586829 10 10 C10.33 10.99 10.66 11.98 11 13 C10.01 13 9.02 13 8 13 C8 12.01 8 11.02 8 10 C7.01 10 6.02 10 5 10 C5.34786708 11.97536745 5.34786708 11.97536745 6 14 C6.66 14.33 7.32 14.66 8 15 C9.625 16.4375 9.625 16.4375 11 18 C11 18.66 11 19.32 11 20 C11.66 20.33 12.32 20.66 13 21 C10 22 10 22 7 22 C7.66 20.68 8.32 19.36 9 18 C8.01 18 7.02 18 6 18 C6 19.65 6 21.3 6 23 C4.68 23 3.36 23 2 23 C1.4375 21.0625 1.4375 21.0625 1 19 C1.33 18.67 1.66 18.34 2 18 C1.34 17.34 0.68 16.68 0 16 C0.99 15.67 1.98 15.34 3 15 C2.34 14.34 1.68 13.68 1 13 C0.34 13 -0.32 13 -1 13 C-1 12.01 -1 11.02 -1 10 C-1.99 9.67 -2.98 9.34 -4 9 C-3.34 8.34 -2.68 7.68 -2 7 C-0.68 7 0.64 7 2 7 C2 6.34 2 5.68 2 5 C1.34 5 0.68 5 0 5 C0 3.35 0 1.7 0 0 Z " fill="#878880" transform="translate(82,23)"/>
<path d="M0 0 C1.98 0 3.96 0 6 0 C6.33 0.99 6.66 1.98 7 3 C6.67 3.66 6.34 4.32 6 5 C6.66 5.33 7.32 5.66 8 6 C7.67 6.33 7.34 6.66 7 7 C7.61875 7.103125 8.2375 7.20625 8.875 7.3125 C11 8 11 8 13 11 C13.33 11.66 13.66 12.32 14 13 C14.66 13 15.32 13 16 13 C16.625 14.875 16.625 14.875 17 17 C16.34 17.66 15.68 18.32 15 19 C15 18.01 15 17.02 15 16 C14.38125 15.855625 13.7625 15.71125 13.125 15.5625 C11 15 11 15 9 14 C9 13.34 9 12.68 9 12 C8.34 12 7.68 12 7 12 C7.66 13.32 8.32 14.64 9 16 C7.68 16.33 6.36 16.66 5 17 C5.33 15.35 5.66 13.7 6 12 C4.68 11.67 3.36 11.34 2 11 C1.67 11.66 1.34 12.32 1 13 C0.67 12.01 0.34 11.02 0 10 C-0.66 10 -1.32 10 -2 10 C-2 9.34 -2 8.68 -2 8 C-2.66 7.67 -3.32 7.34 -4 7 C-3.34 7 -2.68 7 -2 7 C-1.67 6.34 -1.34 5.68 -1 5 C-0.34 5.66 0.32 6.32 1 7 C1 6.34 1 5.68 1 5 C1.33 4.67 1.66 4.34 2 4 C1.34 2.68 0.68 1.36 0 0 Z " fill="#4E4F47" transform="translate(66,80)"/>
<path d="M0 0 C1.32 0 2.64 0 4 0 C5.03159626 3.09478879 4.97482862 4.52631393 4.5625 7.6875 C4.46066406 8.49574219 4.35882813 9.30398437 4.25390625 10.13671875 C4.17011719 10.75160156 4.08632813 11.36648437 4 12 C3.67 10.68 3.34 9.36 3 8 C2.34 8 1.68 8 1 8 C1.165 9.03125 1.33 10.0625 1.5 11.125 C1.93321848 14.48244326 2.08235703 17.62336157 2 21 C1.34 21 0.68 21 0 21 C0 20.01 0 19.02 0 18 C-0.66 18 -1.32 18 -2 18 C-2 16.68 -2 15.36 -2 14 C-2.66 13.67 -3.32 13.34 -4 13 C-4.33 13.66 -4.66 14.32 -5 15 C-4.34 15 -3.68 15 -3 15 C-3.5859375 21.15234375 -3.5859375 21.15234375 -4 23 C-4.66 23.33 -5.32 23.66 -6 24 C-7.96094691 19.27065745 -8.31521514 15.97902874 -7 11 C-5.0625 9.0625 -5.0625 9.0625 -3 8 C-2.34 8 -1.68 8 -1 8 C-0.67 6.35 -0.34 4.7 0 3 C-0.66 2.67 -1.32 2.34 -2 2 C-1.34 2 -0.68 2 0 2 C0 1.34 0 0.68 0 0 Z " fill="#52534B" transform="translate(39,22)"/>
<path d="M0 0 C0.66 0 1.32 0 2 0 C2.103125 0.639375 2.20625 1.27875 2.3125 1.9375 C2.6528125 2.9584375 2.6528125 2.9584375 3 4 C3.99 4.33 4.98 4.66 6 5 C5.01 5.495 5.01 5.495 4 6 C4 7.32 4 8.64 4 10 C-0.455 10.495 -0.455 10.495 -5 11 C-4.67 12.32 -4.34 13.64 -4 15 C-5.9375 14.1875 -5.9375 14.1875 -8 13 C-8.33 12.01 -8.66 11.02 -9 10 C-8.67 9.34 -8.34 8.68 -8 8 C-8.39938767 5.90178785 -8.39938767 5.90178785 -9 4 C-7.25 2.4375 -7.25 2.4375 -5 1 C-2.8125 1.1875 -2.8125 1.1875 -1 2 C-0.67 2.66 -0.34 3.32 0 4 C0 2.68 0 1.36 0 0 Z " fill="#6B6C63" transform="translate(45,0)"/>
<path d="M0 0 C0.53109375 0.34933594 1.0621875 0.69867188 1.609375 1.05859375 C2.31578125 1.51363281 3.0221875 1.96867188 3.75 2.4375 C4.44609375 2.88996094 5.1421875 3.34242188 5.859375 3.80859375 C7.92957014 4.9608009 9.68696324 5.54676982 12 6 C11.67 6.99 11.34 7.98 11 9 C9.35 9.33 7.7 9.66 6 10 C6 10.66 6 11.32 6 12 C5.278125 11.690625 4.55625 11.38125 3.8125 11.0625 C1.19692691 10.07439461 -1.25118982 9.4712246 -4 9 C-3.67 8.01 -3.34 7.02 -3 6 C-3.66 6 -4.32 6 -5 6 C-5.33 5.67 -5.66 5.34 -6 5 C-6.33 5.66 -6.66 6.32 -7 7 C-7.66 7 -8.32 7 -9 7 C-9.33 5.68 -9.66 4.36 -10 3 C-6.98968256 2.06576355 -6.13349732 1.95550089 -3 3 C-2.01 2.67 -1.02 2.34 0 2 C0 1.34 0 0.68 0 0 Z " fill="#74746C" transform="translate(80,1)"/>
<path d="M0 0 C2 2 2 2 2.1875 5.4375 C2 9 2 9 1 12 C-1 11 -3 10 -5 9 C-5.99 9.99 -6.98 10.98 -8 12 C-8 11.01 -8 10.02 -8 9 C-8.66 8.67 -9.32 8.34 -10 8 C-8.54054054 1.43243243 -8.54054054 1.43243243 -6.125 -0.5 C-3.64258551 -1.08409753 -2.35853463 -0.94341385 0 0 Z " fill="#5A5B52" transform="translate(93,10)"/>
<path d="M0 0 C0.66 0.33 1.32 0.66 2 1 C2 1.99 2 2.98 2 4 C2.99 3.67 3.98 3.34 5 3 C5.66 4.32 6.32 5.64 7 7 C7 5.68 7 4.36 7 3 C7.99 3.33 8.98 3.66 10 4 C10.6875 6.0625 10.6875 6.0625 11 8 C10.34 8 9.68 8 9 8 C9 8.66 9 9.32 9 10 C8.34 10 7.68 10 7 10 C7 10.99 7 11.98 7 13 C7.99 13.33 8.98 13.66 10 14 C10 16.31 10 18.62 10 21 C8.68 21.33 7.36 21.66 6 22 C5.67 19.69 5.34 17.38 5 15 C3.68 15 2.36 15 1 15 C0.34 14.34 -0.32 13.68 -1 13 C0.32 12.67 1.64 12.34 3 12 C2.74438677 9.6568787 2.40729228 7.32156597 2 5 C1.34 4.67 0.68 4.34 0 4 C0 2.68 0 1.36 0 0 Z " fill="#606159" transform="translate(66,57)"/>
<path d="M0 0 C3.125 -0.1875 3.125 -0.1875 6 0 C4.93736614 4.3322765 4.18566691 6.94175977 1 10 C-0.13809601 12.29171151 -1.05595866 14.61741948 -2 17 C-2.99 16.34 -3.98 15.68 -5 15 C-4.34 14.67 -3.68 14.34 -3 14 C-3.33 13.34 -3.66 12.68 -4 12 C-3.34 11.67 -2.68 11.34 -2 11 C-4.95377498 8.63019987 -4.95377498 8.63019987 -9 9 C-9.66 8.01 -10.32 7.02 -11 6 C-10.443125 5.87625 -9.88625 5.7525 -9.3125 5.625 C-3.76432948 4.15364338 -3.76432948 4.15364338 0 0 Z " fill="#505149" transform="translate(45,74)"/>
<path d="M0 0 C0.268125 0.598125 0.53625 1.19625 0.8125 1.8125 C1.99199336 3.98525092 3.229192 5.30618365 5 7 C5.33 7.66 5.66 8.32 6 9 C6.66 9 7.32 9 8 9 C8 9.99 8 10.98 8 12 C8.66 12.33 9.32 12.66 10 13 C8.36587557 14.70840281 7.13093906 15.93453047 5 17 C4.690625 18.155 4.38125 19.31 4.0625 20.5 C3.711875 21.655 3.36125 22.81 3 24 C2.01 24.33 1.02 24.66 0 25 C-1.1577506 21.52674819 -1.06866652 18.63932552 -1 15 C-0.34 15 0.32 15 1 15 C1.74926071 11.33694766 2.2380014 8.57644848 1 5 C0.34 5 -0.32 5 -1 5 C-0.67 3.35 -0.34 1.7 0 0 Z " fill="#63655C" transform="translate(41,15)"/>
<path d="M0 0 C6.27 0 12.54 0 19 0 C18.67 1.32 18.34 2.64 18 4 C17.34 4 16.68 4 16 4 C15.67 5.65 15.34 7.3 15 9 C14.34 8.67 13.68 8.34 13 8 C12.34 8 11.68 8 11 8 C11 7.34 11 6.68 11 6 C9.9171875 6.4021875 9.9171875 6.4021875 8.8125 6.8125 C6 7 6 7 3.25 4.6875 C1 2 1 2 0 0 Z " fill="#5E5E55" transform="translate(81,1)"/>
<path d="M0 0 C0.33 0 0.66 0 1 0 C1 17.82 1 35.64 1 54 C0.67 54 0.34 54 0 54 C-0.89864361 42.47810516 -1.08449085 31.02996573 -0.96289062 19.47314453 C-0.95451172 18.38888184 -0.94613281 17.30461914 -0.9375 16.1875 C-0.92589844 15.21167969 -0.91429688 14.23585938 -0.90234375 13.23046875 C-0.74719475 11.02763842 -0.74719475 11.02763842 -2 10 C-2.66 10.66 -3.32 11.32 -4 12 C-4.99 10.02 -5.98 8.04 -7 6 C-6.360625 5.71125 -5.72125 5.4225 -5.0625 5.125 C-2.84793921 4.17176549 -2.84793921 4.17176549 -2 2 C-1.34 2 -0.68 2 0 2 C0 1.34 0 0.68 0 0 Z " fill="#898A81" transform="translate(99,3)"/>
<path d="M0 0 C3 0 3 0 5.1875 1.875 C7.72812282 6.25538417 7.34588916 10.05186334 7 15 C8.65 15.33 10.3 15.66 12 16 C11.38125 16.28875 10.7625 16.5775 10.125 16.875 C7.86674235 17.93720042 7.86674235 17.93720042 6 20 C5.938125 19.38125 5.87625 18.7625 5.8125 18.125 C5.171081 15.72238859 5.171081 15.72238859 2.4375 14.75 C1.633125 14.5025 0.82875 14.255 0 14 C0.99 13.67 1.98 13.34 3 13 C2.67 12.01 2.34 11.02 2 10 C2.66 10 3.32 10 4 10 C4.33 8.68 4.66 7.36 5 6 C4.01 6 3.02 6 2 6 C1.67 6.66 1.34 7.32 1 8 C1 7.34 1 6.68 1 6 C-0.32 5.34 -1.64 4.68 -3 4 C-2 2 -2 2 0 0 Z " fill="#5F6056" transform="translate(46,68)"/>
<path d="M0 0 C0.33 0.99 0.66 1.98 1 3 C2.32 2.67 3.64 2.34 5 2 C6.1875 4.0625 6.1875 4.0625 7 7 C6 10.6875 6 10.6875 4 14 C0.8125 15.4375 0.8125 15.4375 -2 16 C-1.67 14.02 -1.34 12.04 -1 10 C-2.65 9.67 -4.3 9.34 -6 9 C-6 8.01 -6 7.02 -6 6 C-4.02 6 -2.04 6 0 6 C0 5.01 0 4.02 0 3 C-0.66 2.67 -1.32 2.34 -2 2 C-1.34 1.34 -0.68 0.68 0 0 Z " fill="#404139" transform="translate(13,68)"/>
<path d="M0 0 C0.33 0.66 0.66 1.32 1 2 C1.598125 1.79375 2.19625 1.5875 2.8125 1.375 C5 1 5 1 8 3 C7.67 3.66 7.34 4.32 7 5 C6.34 4.67 5.68 4.34 5 4 C4.67 4.99 4.34 5.98 4 7 C3.67 7 3.34 7 3 7 C2.01 7.495 2.01 7.495 1 8 C0.855625 8.66 0.71125 9.32 0.5625 10 C0.376875 10.66 0.19125 11.32 0 12 C-0.99 12.33 -1.98 12.66 -3 13 C-5.52588702 10.63707344 -6.88820837 9.33537489 -8 6 C-6.576875 5.9071875 -6.576875 5.9071875 -5.125 5.8125 C-4.09375 5.544375 -3.0625 5.27625 -2 5 C-0.54708727 2.53744315 -0.54708727 2.53744315 0 0 Z " fill="#484941" transform="translate(25,63)"/>
<path d="M0 0 C0.66 0.33 1.32 0.66 2 1 C1.34 2.32 0.68 3.64 0 5 C-0.99 4.67 -1.98 4.34 -3 4 C-3.33 4.99 -3.66 5.98 -4 7 C-4.66 6.01 -5.32 5.02 -6 4 C-6.99 4 -7.98 4 -9 4 C-9 5.32 -9 6.64 -9 8 C-7.68 8.66 -6.36 9.32 -5 10 C-5.8125 13.4375 -5.8125 13.4375 -7 17 C-7.99 17.33 -8.98 17.66 -10 18 C-11.26305335 12.92523206 -12.27036084 8.27203646 -12 3 C-6.70769231 0.78461538 -6.70769231 0.78461538 -3.125 1.875 C-2.42375 2.24625 -1.7225 2.6175 -1 3 C-0.67 2.01 -0.34 1.02 0 0 Z " fill="#45463D" transform="translate(66,47)"/>
<path d="M0 0 C1.9375 0.375 1.9375 0.375 4 1 C4.33 1.66 4.66 2.32 5 3 C5.33 2.34 5.66 1.68 6 1 C6.99 1.33 7.98 1.66 9 2 C8.41196203 5.02419525 7.77321882 8.01758453 7 11 C6.01 10.67 5.02 10.34 4 10 C4.66 11.32 5.32 12.64 6 14 C4.02 14.99 4.02 14.99 2 16 C2.66 13.03 3.32 10.06 4 7 C2.68 7.33 1.36 7.66 0 8 C0 7.01 0 6.02 0 5 C-0.66 4.67 -1.32 4.34 -2 4 C-1.34 2.68 -0.68 1.36 0 0 Z " fill="#51534A" transform="translate(57,50)"/>
<path d="M0 0 C2.31 0 4.62 0 7 0 C6 2 6 2 3 4 C3 4.66 3 5.32 3 6 C3.66 6 4.32 6 5 6 C5 6.99 5 7.98 5 9 C4.34 9 3.68 9 3 9 C2.34 10.98 1.68 12.96 1 15 C-1.64 15 -4.28 15 -7 15 C-7 13.35 -7 11.7 -7 10 C-6.67 10.99 -6.34 11.98 -6 13 C-5.34 13 -4.68 13 -4 13 C-3.67 12.34 -3.34 11.68 -3 11 C-2.01 10.34 -1.02 9.68 0 9 C0.36362818 6.79274927 0.36362818 6.79274927 0.1875 4.375 C0.16042969 3.55773437 0.13335937 2.74046875 0.10546875 1.8984375 C0.07066406 1.27195312 0.03585938 0.64546875 0 0 Z " fill="#44453C" transform="translate(60,68)"/>
<path d="M0 0 C0.44730469 0.39832031 0.89460937 0.79664063 1.35546875 1.20703125 C4.74779939 4.17984125 8.01840224 6.8282194 12 9 C11.34 10.32 10.68 11.64 10 13 C8.35 12.67 6.7 12.34 5 12 C5 11.34 5 10.68 5 10 C4.34 10 3.68 10 3 10 C3 9.01 3 8.02 3 7 C2.34 7 1.68 7 1 7 C0.67 7.66 0.34 8.32 0 9 C-0.66 8.01 -1.32 7.02 -2 6 C-1.125 2.8125 -1.125 2.8125 0 0 Z " fill="#58584F" transform="translate(12,39)"/>
<path d="M0 0 C0.66 0.99 1.32 1.98 2 3 C2.99 3 3.98 3 5 3 C5 3.66 5 4.32 5 5 C5.99 5 6.98 5 8 5 C7.67 5.66 7.34 6.32 7 7 C6.34 6.67 5.68 6.34 5 6 C5 6.66 5 7.32 5 8 C5.66 8 6.32 8 7 8 C7.33 9.32 7.66 10.64 8 12 C7.34 12 6.68 12 6 12 C5.67 12.66 5.34 13.32 5 14 C4.34 14 3.68 14 3 14 C2.67 12.68 2.34 11.36 2 10 C0.35 10 -1.3 10 -3 10 C-3 9.01 -3 8.02 -3 7 C-2.34 7 -1.68 7 -1 7 C-1.33 6.01 -1.66 5.02 -2 4 C-1.0625 1.8125 -1.0625 1.8125 0 0 Z " fill="#484941" transform="translate(3,82)"/>
<path d="M0 0 C0.33 0.66 0.66 1.32 1 2 C1.825 2.309375 2.65 2.61875 3.5 2.9375 C4.7375 3.4634375 4.7375 3.4634375 6 4 C6.33 4.99 6.66 5.98 7 7 C7.66 7.33 8.32 7.66 9 8 C6 9 6 9 3 9 C3.66 7.68 4.32 6.36 5 5 C4.01 5 3.02 5 2 5 C2 6.65 2 8.3 2 10 C0.68 10 -0.64 10 -2 10 C-2.5625 8.0625 -2.5625 8.0625 -3 6 C-2.67 5.67 -2.34 5.34 -2 5 C-2.66 4.34 -3.32 3.68 -4 3 C-2.68 2.01 -1.36 1.02 0 0 Z " fill="#74756D" transform="translate(86,36)"/>
<path d="M0 0 C0.33 0 0.66 0 1 0 C1.33 2.97 1.66 5.94 2 9 C2.99 9.33 3.98 9.66 5 10 C4.814375 10.515625 4.62875 11.03125 4.4375 11.5625 C3.73453816 15.47900167 4.21507084 19.43014168 6 23 C4.68 23 3.36 23 2 23 C1.67 21.02 1.34 19.04 1 17 C0.34 17 -0.32 17 -1 17 C-1 16.34 -1 15.68 -1 15 C-0.34 14.67 0.32 14.34 1 14 C0.84402344 13.40832031 0.68804687 12.81664063 0.52734375 12.20703125 C-1.4059754 4.35852373 -1.4059754 4.35852373 0 0 Z " fill="#6E7065" transform="translate(89,55)"/>
<path d="M0 0 C3.96 0 7.92 0 12 0 C11.34 1.32 10.68 2.64 10 4 C8.35 4 6.7 4 5 4 C5 4.66 5 5.32 5 6 C5.66 6.33 6.32 6.66 7 7 C6.01 8.32 5.02 9.64 4 11 C3.34 10.67 2.68 10.34 2 10 C2.226875 9.236875 2.45375 8.47375 2.6875 7.6875 C2.790625 6.800625 2.89375 5.91375 3 5 C1.62485459 3.2912354 1.62485459 3.2912354 0 2 C0 1.34 0 0.68 0 0 Z " fill="#56584E" transform="translate(47,0)"/>
<path d="M0 0 C0 0.99 0 1.98 0 3 C0.66 3.33 1.32 3.66 2 4 C1.34 5.65 0.68 7.3 0 9 C-3.96679333 9 -5.20374041 7.720685 -8 5 C-8 3.68 -8 2.36 -8 1 C-5.07175348 0.02391783 -3.04386724 -0.08226668 0 0 Z " fill="#66675F" transform="translate(11,10)"/>
<path d="M0 0 C0.99 0 1.98 0 3 0 C3 0.99 3 1.98 3 3 C3.99 3 4.98 3 6 3 C6.33 2.01 6.66 1.02 7 0 C9.475 0.99 9.475 0.99 12 2 C12 3.65 12 5.3 12 7 C10.33333333 7 8.66666667 7 7 7 C6.67 7.99 6.34 8.98 6 10 C0.42857143 3.71428571 0.42857143 3.71428571 0 0 Z " fill="#65665C" transform="translate(87,33)"/>
<path d="M0 0 C1.65 0 3.3 0 5 0 C5.33 0.66 5.66 1.32 6 2 C5.01 3.485 5.01 3.485 4 5 C3.61500109 6.65549531 3.27206865 8.3222433 3 10 C2.34 10 1.68 10 1 10 C1 10.99 1 11.98 1 13 C1.66 13.33 2.32 13.66 3 14 C2.01 14 1.02 14 0 14 C-0.66 12.35 -1.32 10.7 -2 9 C-1.01 8.34 -0.02 7.68 1 7 C0.01 6.67 -0.98 6.34 -2 6 C-2 4.68 -2 3.36 -2 2 C-1.34 2 -0.68 2 0 2 C0 1.34 0 0.68 0 0 Z " fill="#4E4F47" transform="translate(24,36)"/>
<path d="M0 0 C-1.32 0.33 -2.64 0.66 -4 1 C-4 2.32 -4 3.64 -4 5 C-4.99 5.495 -4.99 5.495 -6 6 C-5.01 6.66 -4.02 7.32 -3 8 C-3.66 9.32 -4.32 10.64 -5 12 C-5.66 11.67 -6.32 11.34 -7 11 C-7.33 12.32 -7.66 13.64 -8 15 C-9 14 -9 14 -9.1328125 11.56640625 C-9.13023438 10.57511719 -9.12765625 9.58382813 -9.125 8.5625 C-9.12757812 7.57378906 -9.13015625 6.58507812 -9.1328125 5.56640625 C-9 3 -9 3 -8 1 C-5.07175348 0.02391783 -3.04386724 -0.08226668 0 0 Z " fill="#4C4D46" transform="translate(10,0)"/>
<path d="M0 0 C-0.020625 0.9075 -0.04125 1.815 -0.0625 2.75 C-0.0110245 5.42672588 0.2215017 7.46988052 1 10 C0.01 10 -0.98 10 -2 10 C-3.67099977 10.31088368 -5.33871537 10.64080332 -7 11 C-6.74445946 9.53890937 -6.46999628 8.08111904 -6.1875 6.625 C-6.03667969 5.81289063 -5.88585937 5.00078125 -5.73046875 4.1640625 C-4.72269948 1.17847868 -3.19663259 0 0 0 Z " fill="#606257" transform="translate(84,12)"/>
<path d="M0 0 C2.31 0.33 4.62 0.66 7 1 C7 1.66 7 2.32 7 3 C7.99 3 8.98 3 10 3 C10 3.66 10 4.32 10 5 C8.02 5.66 6.04 6.32 4 7 C4.33 8.32 4.66 9.64 5 11 C3.0625 10.1875 3.0625 10.1875 1 9 C0.67 8.01 0.34 7.02 0 6 C0.33 5.34 0.66 4.68 1 4 C0.60061233 1.90178785 0.60061233 1.90178785 0 0 Z " fill="#5A5B53" transform="translate(36,4)"/>
<path d="M0 0 C0.33 0 0.66 0 1 0 C1 1.65 1 3.3 1 5 C2.98 4.67 4.96 4.34 7 4 C6.125 9.75 6.125 9.75 5 12 C4.01 11.67 3.02 11.34 2 11 C2 10.34 2 9.68 2 9 C1.34 8.67 0.68 8.34 0 8 C-1 7 -1 7 -1.125 4 C-1 1 -1 1 0 0 Z " fill="#767770" transform="translate(58,1)"/>
<path d="M0 0 C2.38022734 0.57702481 3.75956679 0.24022853 6.0625 -0.5 C7.0625 2.5 7.0625 2.5 6.125 4.6875 C5.774375 5.285625 5.42375 5.88375 5.0625 6.5 C3.7425 6.17 2.4225 5.84 1.0625 5.5 C1.3925 4.84 1.7225 4.18 2.0625 3.5 C1.4025 3.5 0.7425 3.5 0.0625 3.5 C-0.2675 3.17 -0.5975 2.84 -0.9375 2.5 C-1.2675 3.16 -1.5975 3.82 -1.9375 4.5 C-2.5975 4.5 -3.2575 4.5 -3.9375 4.5 C-4.2675 3.18 -4.5975 1.86 -4.9375 0.5 C-1.9375 -0.5 -1.9375 -0.5 0 0 Z " fill="#707169" transform="translate(74.9375,3.5)"/>
<path d="M0 0 C0.97608217 2.92824652 1.08226668 4.95613276 1 8 C-1.875 7.25 -1.875 7.25 -5 6 C-6.1875 3.9375 -6.1875 3.9375 -7 2 C-7.99 1.67 -8.98 1.34 -10 1 C-6.7 0.67 -3.4 0.34 0 0 Z " fill="#51524A" transform="translate(56,66)"/>
<path d="M0 0 C0.2475 0.639375 0.495 1.27875 0.75 1.9375 C1.81562433 4.18741541 1.81562433 4.18741541 4.125 4.75 C4.74375 4.8325 5.3625 4.915 6 5 C5.01 5.99 4.02 6.98 3 8 C3.66 8 4.32 8 5 8 C4.67 8.99 4.34 9.98 4 11 C3.38125 10.835 2.7625 10.67 2.125 10.5 C0.03936614 9.92365356 0.03936614 9.92365356 -2 10 C-2.33 9.01 -2.66 8.02 -3 7 C-2.34 6.67 -1.68 6.34 -1 6 C-0.34227572 2.97065509 -0.34227572 2.97065509 0 0 Z " fill="#4E4E46" transform="translate(50,84)"/>
<path d="M0 0 C0.33 0.66 0.66 1.32 1 2 C1.66 2 2.32 2 3 2 C3.66 3.98 4.32 5.96 5 8 C3.02 8.66 1.04 9.32 -1 10 C-1.33 7.36 -1.66 4.72 -2 2 C-1.34 2 -0.68 2 0 2 C0 1.34 0 0.68 0 0 Z " fill="#51524A" transform="translate(17,19)"/>
<path d="M0 0 C5.69329897 2.42268041 5.69329897 2.42268041 7.0625 5 C7 7 7 7 5.6875 8.75 C4 10 4 10 2 10 C1.67 8.02 1.34 6.04 1 4 C0.01 3.67 -0.98 3.34 -2 3 C-1.34 2.67 -0.68 2.34 0 2 C0 1.34 0 0.68 0 0 Z " fill="#52534B" transform="translate(31,2)"/>
<path d="M0 0 C2.125 0.9375 2.125 0.9375 4 2 C3.67 2.66 3.34 3.32 3 4 C3.99 4 4.98 4 6 4 C6.33 4.33 6.66 4.66 7 5 C7.66 5 8.32 5 9 5 C9.33 5.99 9.66 6.98 10 8 C5.38 8 0.76 8 -4 8 C-3.01 7.67 -2.02 7.34 -1 7 C-1 6.34 -1 5.68 -1 5 C-0.34 5 0.32 5 1 5 C0.01 3.68 -0.98 2.36 -2 1 C-1.34 0.67 -0.68 0.34 0 0 Z " fill="#515348" transform="translate(89,92)"/>
<path d="M0 0 C0.99 0 1.98 0 3 0 C3.33 0.66 3.66 1.32 4 2 C4.99 1.67 5.98 1.34 7 1 C7.66 1.33 8.32 1.66 9 2 C8.67 3.65 8.34 5.3 8 7 C6.329375 6.4740625 6.329375 6.4740625 4.625 5.9375 C1.19735524 4.62760669 1.19735524 4.62760669 -1 6 C-1.042721 4.33388095 -1.04063832 2.66617115 -1 1 C-0.67 0.67 -0.34 0.34 0 0 Z " fill="#424339" transform="translate(63,90)"/>
<path d="M0 0 C0.33 0 0.66 0 1 0 C1.125 2.875 1.125 2.875 1 6 C0.34 6.66 -0.32 7.32 -1 8 C-4.5 7.8125 -4.5 7.8125 -8 7 C-8.66 6.01 -9.32 5.02 -10 4 C-8.906875 3.896875 -7.81375 3.79375 -6.6875 3.6875 C-3.07905368 3.01473882 -2.15915348 2.75891833 0 0 Z " fill="#5E5E56" transform="translate(98,75)"/>
<path d="M0 0 C0.33 1.32 0.66 2.64 1 4 C0.01 4.33 -0.98 4.66 -2 5 C-3.21869929 7.50447516 -3.21869929 7.50447516 -4 10 C-4.66 10 -5.32 10 -6 10 C-6 7.36 -6 4.72 -6 2 C-4.02 1.34 -2.04 0.68 0 0 Z " fill="#3B3C34" transform="translate(6,90)"/>
<path d="M0 0 C3.3 0 6.6 0 10 0 C9.67 1.32 9.34 2.64 9 4 C5.62182575 4.84454356 3.32534757 5.10844919 0 4 C0 2.68 0 1.36 0 0 Z " fill="#696961" transform="translate(90,1)"/>
<path d="M0 0 C0.66 0 1.32 0 2 0 C2 0.66 2 1.32 2 2 C1.34 2 0.68 2 0 2 C0 2.99 0 3.98 0 5 C0.99 5 1.98 5 3 5 C3 6.65 3 8.3 3 10 C2.34 10 1.68 10 1 10 C0.67 10.66 0.34 11.32 0 12 C-0.66 11.01 -1.32 10.02 -2 9 C-2.99387334 7.66209359 -3.9926892 6.32781878 -5 5 C-4.67 4.34 -4.34 3.68 -4 3 C-3.34 3 -2.68 3 -2 3 C-1.34 2.01 -0.68 1.02 0 0 Z " fill="#4F5048" transform="translate(8,59)"/>
<path d="M0 0 C1.65 0 3.3 0 5 0 C5 1.32 5 2.64 5 4 C5.66 4.33 6.32 4.66 7 5 C7.33 5.66 7.66 6.32 8 7 C7.67 7.66 7.34 8.32 7 9 C6.01 8.67 5.02 8.34 4 8 C4 7.34 4 6.68 4 6 C2.68 5.67 1.36 5.34 0 5 C0 3.33333333 0 1.66666667 0 0 Z " fill="#696A62" transform="translate(52,4)"/>
<path d="M0 0 C1.51400391 0.01740234 1.51400391 0.01740234 3.05859375 0.03515625 C4.07050781 0.04417969 5.08242188 0.05320313 6.125 0.0625 C7.29869141 0.07990234 7.29869141 0.07990234 8.49609375 0.09765625 C8.82609375 1.41765625 9.15609375 2.73765625 9.49609375 4.09765625 C8.50609375 4.59265625 8.50609375 4.59265625 7.49609375 5.09765625 C7.16609375 4.10765625 6.83609375 3.11765625 6.49609375 2.09765625 C3.56730004 2.7252549 1.13513746 3.68388284 -1.50390625 5.09765625 C-2.49390625 4.43765625 -3.48390625 3.77765625 -4.50390625 3.09765625 C-3.01385056 0.11754487 -3.01385056 0.11754487 0 0 Z " fill="#4A4C42" transform="translate(36.50390625,-0.09765625)"/>
<path d="M0 0 C1.485 0.99 1.485 0.99 3 2 C3.66 1.34 4.32 0.68 5 0 C5.99 1.32 6.98 2.64 8 4 C7.34 5.32 6.68 6.64 6 8 C3.525 7.01 3.525 7.01 1 6 C1 5.34 1 4.68 1 4 C0.34 3.67 -0.32 3.34 -1 3 C-0.67 2.01 -0.34 1.02 0 0 Z " fill="#686A5E" transform="translate(84,22)"/>
<path d="M0 0 C0.33 0 0.66 0 1 0 C1 3.3 1 6.6 1 10 C0.34 9.01 -0.32 8.02 -1 7 C-2.43750191 5.31201173 -2.43750191 5.31201173 -4 4 C-4.66 4 -5.32 4 -6 4 C-6.33 5.32 -6.66 6.64 -7 8 C-7.66 7.67 -8.32 7.34 -9 7 C-9 5.68 -9 4.36 -9 3 C-7.88625 2.87625 -6.7725 2.7525 -5.625 2.625 C-1.96896323 2.3534187 -1.96896323 2.3534187 0 0 Z " fill="#606158" transform="translate(98,83)"/>
<path d="M0 0 C2.0625 0.4375 2.0625 0.4375 4 1 C4 1.66 4 2.32 4 3 C4.66 3.33 5.32 3.66 6 4 C4.74458443 6.51083114 3.49936512 6.87125446 1 8 C-0.5625 6.75 -0.5625 6.75 -2 5 C-1.74853421 2.86254078 -1.54074221 1.54074221 0 0 Z " fill="#4D4D43" transform="translate(19,39)"/>
<path d="M0 0 C-0.33 0.99 -0.66 1.98 -1 3 C-1.66 3 -2.32 3 -3 3 C-3.84454356 6.37817425 -4.10844919 8.67465243 -3 12 C-3.33 11.34 -3.66 10.68 -4 10 C-4.66 10 -5.32 10 -6 10 C-6.66 8.02 -7.32 6.04 -8 4 C-7.01 4.33 -6.02 4.66 -5 5 C-5.33 4.01 -5.66 3.02 -6 2 C-2.25 0 -2.25 0 0 0 Z " fill="#64655D" transform="translate(99,45)"/>
<path d="M0 0 C2.31 0 4.62 0 7 0 C7.66 1.32 8.32 2.64 9 4 C8.34 4.66 7.68 5.32 7 6 C4.375 5.625 4.375 5.625 2 5 C2 4.34 2 3.68 2 3 C1.34 3 0.68 3 0 3 C0 2.01 0 1.02 0 0 Z " fill="#686860" transform="translate(15,46)"/>
<path d="M0 0 C2.97 0.495 2.97 0.495 6 1 C6.33 2.65 6.66 4.3 7 6 C7.66 6 8.32 6 9 6 C8.67 6.99 8.34 7.98 8 9 C7.01 8.34 6.02 7.68 5 7 C5 6.34 5 5.68 5 5 C2.525 4.01 2.525 4.01 0 3 C0 2.01 0 1.02 0 0 Z " fill="#62635B" transform="translate(5,21)"/>
<path d="M0 0 C1.32 0.33 2.64 0.66 4 1 C3.67 3.64 3.34 6.28 3 9 C1 8 -1 7 -3 6 C-2 4 -1 2 0 0 Z " fill="#4D4F45" transform="translate(91,13)"/>
<path d="M0 0 C2 3 2 3 2 5 C1.34 5 0.68 5 0 5 C-0.33 5.99 -0.66 6.98 -1 8 C-3.64 6.68 -6.28 5.36 -9 4 C-6.04388137 2.52194068 -4.07210618 1.74154287 -1 1 C-0.67 0.67 -0.34 0.34 0 0 Z " fill="#45463F" transform="translate(57,31)"/>
<path d="M0 0 C0.625 1.875 0.625 1.875 1 4 C0.34 4.66 -0.32 5.32 -1 6 C-1.99 5.67 -2.98 5.34 -4 5 C-2.68 3.35 -1.36 1.7 0 0 Z M-8 6 C-6.68 6.33 -5.36 6.66 -4 7 C-5.32 8.65 -6.64 10.3 -8 12 C-9.32 11.67 -10.64 11.34 -12 11 C-11.34 10.54625 -10.68 10.0925 -10 9.625 C-9.34 9.08875 -8.68 8.5525 -8 8 C-8 7.34 -8 6.68 -8 6 Z " fill="#55564E" transform="translate(30,26)"/>
<path d="M0 0 C2 2 2 2 3 5 C3.66 5.33 4.32 5.66 5 6 C3.35 7.65 1.7 9.3 0 11 C-1.125 9.4375 -1.125 9.4375 -2 7 C-1.125 3.25 -1.125 3.25 0 0 Z " fill="#54554D" transform="translate(41,63)"/>
<path d="M0 0 C0.66 0 1.32 0 2 0 C2 0.66 2 1.32 2 2 C3.32 1.67 4.64 1.34 6 1 C6.66 2.32 7.32 3.64 8 5 C6.35 5.66 4.7 6.32 3 7 C2.67 6.34 2.34 5.68 2 5 C2.99 5 3.98 5 5 5 C3.02 4.34 1.04 3.68 -1 3 C-0.67 2.01 -0.34 1.02 0 0 Z " fill="#5F6057" transform="translate(14,61)"/>
<path d="M0 0 C1.5 1.375 1.5 1.375 3 3 C3 3.66 3 4.32 3 5 C2.34 5 1.68 5 1 5 C0.67 6.32 0.34 7.64 0 9 C-0.66 9 -1.32 9 -2 9 C-2.144375 8.21625 -2.28875 7.4325 -2.4375 6.625 C-2.87798925 4.03578982 -2.87798925 4.03578982 -4 2 C-2.68 1.34 -1.36 0.68 0 0 Z " fill="#64655D" transform="translate(75,41)"/>
<path d="M0 0 C0.66 1.65 1.32 3.3 2 5 C0.02 5.33 -1.96 5.66 -4 6 C-4.66 4.68 -5.32 3.36 -6 2 C-3 0 -3 0 0 0 Z " fill="#6A6C63" transform="translate(49,68)"/>
<path d="M0 0 C1.65 0 3.3 0 5 0 C5.33 1.32 5.66 2.64 6 4 C4.68 4.99 3.36 5.98 2 7 C0 4 0 4 0 0 Z " fill="#41423A" transform="translate(2,67)"/>
<path d="M0 0 C0.66 0 1.32 0 2 0 C2 1.32 2 2.64 2 4 C2.99 4 3.98 4 5 4 C4.67 5.65 4.34 7.3 4 9 C3.01 9.33 2.02 9.66 1 10 C-0.1577506 6.52674819 -0.06866652 3.63932552 0 0 Z " fill="#717269" transform="translate(40,30)"/>
<path d="M0 0 C0.66 0 1.32 0 2 0 C1.67 0.99 1.34 1.98 1 3 C1.39397335 5.63804589 1.39397335 5.63804589 2 8 C0.02 8.33 -1.96 8.66 -4 9 C-2.25 2.25 -2.25 2.25 0 0 Z " fill="#58584D" transform="translate(96,26)"/>
<path d="M0 0 C1.65 1.32 3.3 2.64 5 4 C4.67 4.66 4.34 5.32 4 6 C3.34 5.67 2.68 5.34 2 5 C2.66 6.65 3.32 8.3 4 10 C2 8.6875 2 8.6875 0 7 C0 6.01 0 5.02 0 4 C-0.99 4 -1.98 4 -3 4 C-2.67 3.34 -2.34 2.68 -2 2 C-1.34 2.33 -0.68 2.66 0 3 C0 2.01 0 1.02 0 0 Z " fill="#64655D" transform="translate(65,80)"/>
<path d="M0 0 C-0.66 2.31 -1.32 4.62 -2 7 C-3.32 6.67 -4.64 6.34 -6 6 C-6 3 -6 3 -4.6875 1.3125 C-3 0 -3 0 0 0 Z " fill="#46473D" transform="translate(51,74)"/>
<path d="M0 0 C0.99 0.33 1.98 0.66 3 1 C3.33 2.98 3.66 4.96 4 7 C3.01 7 2.02 7 1 7 C-1.1875 4.5 -1.1875 4.5 -3 2 C-2.01 1.34 -1.02 0.68 0 0 Z " fill="#52534B" transform="translate(20,68)"/>
<path d="M0 0 C2 2 2 2 2 5 C2.66 5.33 3.32 5.66 4 6 C4 6.99 4 7.98 4 9 C1.5625 8.625 1.5625 8.625 -1 8 C-1.33 7.34 -1.66 6.68 -2 6 C-1.67 5.34 -1.34 4.68 -1 4 C-1.66 3.67 -2.32 3.34 -3 3 C-2.01 3 -1.02 3 0 3 C0 2.01 0 1.02 0 0 Z " fill="#72746B" transform="translate(62,26)"/>
<path d="M0 0 C1.32 0 2.64 0 4 0 C4 0.66 4 1.32 4 2 C4.66 2 5.32 2 6 2 C6.33 3.98 6.66 5.96 7 8 C5.68 8 4.36 8 3 8 C2.67 6.02 2.34 4.04 2 2 C1.34 2 0.68 2 0 2 C0 1.34 0 0.68 0 0 Z " fill="#676860" transform="translate(88,70)"/>
<path d="M0 0 C-0.6875 2.375 -0.6875 2.375 -2 5 C-4.625 6.3125 -4.625 6.3125 -7 7 C-7.33 6.01 -7.66 5.02 -8 4 C-4.5 0 -4.5 0 0 0 Z " fill="#51524A" transform="translate(29,88)"/>
<path d="M0 0 C0.99 0.33 1.98 0.66 3 1 C2.42415568 3.38564077 1.77772405 5.66682784 1 8 C-0.32 7.67 -1.64 7.34 -3 7 C-2.67 5.68 -2.34 4.36 -2 3 C-1.34 3 -0.68 3 0 3 C0 2.01 0 1.02 0 0 Z " fill="#515349" transform="translate(86,54)"/>
<path d="M0 0 C2.29013653 3.4352048 2.17842973 4.985331 2 9 C1.01 9.33 0.02 9.66 -1 10 C-1.33 8.02 -1.66 6.04 -2 4 C-1.34 4 -0.68 4 0 4 C0 2.68 0 1.36 0 0 Z " fill="#55564E" transform="translate(96,36)"/>
<path d="M0 0 C2.5 1.375 2.5 1.375 5 3 C5 3.66 5 4.32 5 5 C3.02 5.33 1.04 5.66 -1 6 C-1.33 6.99 -1.66 7.98 -2 9 C-2.33 7.35 -2.66 5.7 -3 4 C-2.34 3.67 -1.68 3.34 -1 3 C-0.67 2.01 -0.34 1.02 0 0 Z " fill="#5A5B53" transform="translate(16,15)"/>
<path d="M0 0 C0.99 0.33 1.98 0.66 3 1 C2.40138258 3.35171131 1.73075648 5.6859378 1 8 C0.01 8.495 0.01 8.495 -1 9 C-1.66666667 7.66666667 -2.33333333 6.33333333 -3 5 C-2.34 5 -1.68 5 -1 5 C-1.33 3.68 -1.66 2.36 -2 1 C-1.34 0.67 -0.68 0.34 0 0 Z " fill="#4F5148" transform="translate(20,1)"/>
<path d="M0 0 C0.99 0 1.98 0 3 0 C2.67 0.928125 2.34 1.85625 2 2.8125 C0.85032996 5.92029291 0.85032996 5.92029291 1 9 C-0.32 7.68 -1.64 6.36 -3 5 C-1.6875 2.5 -1.6875 2.5 0 0 Z " fill="#707169" transform="translate(39,6)"/>
<path d="M0 0 C0 0.66 0 1.32 0 2 C-4.29 2 -8.58 2 -13 2 C-13 1.67 -13 1.34 -13 1 C-4.57142857 -1.42857143 -4.57142857 -1.42857143 0 0 Z " fill="#43453B" transform="translate(76,98)"/>
<path d="M0 0 C0.33 1.98 0.66 3.96 1 6 C0.34 6 -0.32 6 -1 6 C-2.7143618 4.04072937 -4.38405168 2.04119788 -6 0 C-3 -1 -3 -1 0 0 Z " fill="#65665E" transform="translate(38,57)"/>
<path d="M0 0 C1.32 0 2.64 0 4 0 C4 0.99 4 1.98 4 3 C3.01 3 2.02 3 1 3 C1.66 4.32 2.32 5.64 3 7 C1.68 7 0.36 7 -1 7 C-1.33 5.68 -1.66 4.36 -2 3 C-1.34 3 -0.68 3 0 3 C0 2.01 0 1.02 0 0 Z " fill="#63645C" transform="translate(73,31)"/>
<path d="M0 0 C1.98 0.495 1.98 0.495 4 1 C3.25 6.75 3.25 6.75 1 9 C1 8.01 1 7.02 1 6 C0.34 5.67 -0.32 5.34 -1 5 C-0.67 3.35 -0.34 1.7 0 0 Z " fill="#4F5147" transform="translate(84,13)"/>
<path d="M0 0 C1.32 0 2.64 0 4 0 C3.67 2.64 3.34 5.28 3 8 C2.01 8 1.02 8 0 8 C0 5.36 0 2.72 0 0 Z " fill="#3E3F37" transform="translate(1,14)"/>
<path d="M0 0 C2.64 1.65 5.28 3.3 8 5 C4 7 4 7 1 7 C0.67 4.69 0.34 2.38 0 0 Z " fill="#87877F" transform="translate(80,1)"/>
<path d="M0 0 C0.66 0 1.32 0 2 0 C2.33 1.98 2.66 3.96 3 6 C1.68 6.33 0.36 6.66 -1 7 C-1.625 5.1875 -1.625 5.1875 -2 3 C-1.34 2.01 -0.68 1.02 0 0 Z " fill="#505149" transform="translate(27,93)"/>
<path d="M0 0 C0.99 0.33 1.98 0.66 3 1 C3 2.32 3 3.64 3 5 C2.34 5 1.68 5 1 5 C0.67 5.66 0.34 6.32 0 7 C-0.99 6.34 -1.98 5.68 -3 5 C-2.34 5 -1.68 5 -1 5 C-1.33 4.01 -1.66 3.02 -2 2 C-1.34 1.34 -0.68 0.68 0 0 Z " fill="#3F4038" transform="translate(37,68)"/>
<path d="M0 0 C1.32 0 2.64 0 4 0 C4.33 1.98 4.66 3.96 5 6 C3.35 5.67 1.7 5.34 0 5 C0 3.35 0 1.7 0 0 Z " fill="#71736A" transform="translate(6,1)"/>
<path d="M0 0 C0.99 0.33 1.98 0.66 3 1 C3 1.66 3 2.32 3 3 C4.65 2.34 6.3 1.68 8 1 C7.67 2.32 7.34 3.64 7 5 C5.02 5 3.04 5 1 5 C0.67 3.35 0.34 1.7 0 0 Z " fill="#4F5048" transform="translate(8,81)"/>
<path d="M0 0 C4.75 -0.125 4.75 -0.125 7 1 C6.67 2.32 6.34 3.64 6 5 C3.5625 4.1875 3.5625 4.1875 1 3 C0.67 2.01 0.34 1.02 0 0 Z " fill="#505149" transform="translate(63,64)"/>
<path d="M0 0 C1.1577506 3.47325181 1.06866652 6.36067448 1 10 C-0.65 8.35 -2.3 6.7 -4 5 C-3.01 4.67 -2.02 4.34 -1 4 C-1.33 3.01 -1.66 2.02 -2 1 C-1.34 0.67 -0.68 0.34 0 0 Z " fill="#606258" transform="translate(88,58)"/>
<path d="M0 0 C2.475 0.495 2.475 0.495 5 1 C4.01 1.495 4.01 1.495 3 2 C3.66 3.32 4.32 4.64 5 6 C3.68 6 2.36 6 1 6 C0.67 4.02 0.34 2.04 0 0 Z " fill="#606258" transform="translate(40,53)"/>
<path d="M0 0 C0.66 0.66 1.32 1.32 2 2 C1.67 2.33 1.34 2.66 1 3 C0.63239269 5.32817964 0.29758419 7.6618385 0 10 C-0.66 9.67 -1.32 9.34 -2 9 C-2.125 5.625 -2.125 5.625 -2 2 C-1.34 1.34 -0.68 0.68 0 0 Z " fill="#4F5048" transform="translate(4,29)"/>
<path d="M0 0 C0.99 0 1.98 0 3 0 C3 0.99 3 1.98 3 3 C3.99 3 4.98 3 6 3 C5.67 3.99 5.34 4.98 5 6 C4.01 5.67 3.02 5.34 2 5 C0.8125 2.4375 0.8125 2.4375 0 0 Z " fill="#6C6D64" transform="translate(87,33)"/>
<path d="M0 0 C-0.33 1.98 -0.66 3.96 -1 6 C-1.66 6 -2.32 6 -3 6 C-3 5.01 -3 4.02 -3 3 C-3.99 2.67 -4.98 2.34 -6 2 C-3 0 -3 0 0 0 Z " fill="#717368" transform="translate(71,20)"/>
<path d="M0 0 C2 1 2 1 3 3 C3.66 3.66 4.32 4.32 5 5 C4.34 5 3.68 5 3 5 C3 5.66 3 6.32 3 7 C2.01 7 1.02 7 0 7 C0 4.69 0 2.38 0 0 Z " fill="#5D5E55" transform="translate(43,27)"/>
<path d="M0 0 C0.99 0 1.98 0 3 0 C3.75 1.75 3.75 1.75 4 4 C2.0625 6.25 2.0625 6.25 0 8 C0 5.36 0 2.72 0 0 Z " fill="#43443B" transform="translate(1,25)"/>
<path d="M0 0 C0.99 0 1.98 0 3 0 C3.33 0.99 3.66 1.98 4 3 C2.0625 5.6875 2.0625 5.6875 0 8 C0 5.36 0 2.72 0 0 Z " fill="#54554D" transform="translate(25,11)"/>
<path d="M0 0 C1.32 0.99 2.64 1.98 4 3 C2.02253397 3.73080266 0.01927511 4.39421747 -2 5 C-2.66 4.67 -3.32 4.34 -4 4 C-3.67 3.01 -3.34 2.02 -3 1 C-2.34 1.33 -1.68 1.66 -1 2 C-0.67 1.34 -0.34 0.68 0 0 Z " fill="#63645C" transform="translate(69,7)"/>
<path d="M0 0 C0.66 0.33 1.32 0.66 2 1 C2 1.66 2 2.32 2 3 C1.34 3 0.68 3 0 3 C0 3.66 0 4.32 0 5 C-1.32 5.33 -2.64 5.66 -4 6 C-4.33 5.34 -4.66 4.68 -5 4 C-3.35 2.68 -1.7 1.36 0 0 Z " fill="#63655A" transform="translate(88,94)"/>
<path d="M0 0 C1.32 0 2.64 0 4 0 C4 0.66 4 1.32 4 2 C3.34 2 2.68 2 2 2 C1.34 3.32 0.68 4.64 0 6 C-0.66 4.68 -1.32 3.36 -2 2 C-1.34 1.34 -0.68 0.68 0 0 Z " fill="#4E4F46" transform="translate(22,60)"/>
<path d="M0 0 C1.32 0 2.64 0 4 0 C4 0.66 4 1.32 4 2 C3.34 2 2.68 2 2 2 C2 2.99 2 3.98 2 5 C2.66 5.33 3.32 5.66 4 6 C3.01 6 2.02 6 1 6 C0.34 4.35 -0.32 2.7 -1 1 C-0.67 0.67 -0.34 0.34 0 0 Z " fill="#57574F" transform="translate(23,44)"/>
<path d="M0 0 C2.5132982 2.5132982 2 3.62447307 2 7 C0.68 6.67 -0.64 6.34 -2 6 C-2 4.68 -2 3.36 -2 2 C-1.34 2 -0.68 2 0 2 C0 1.34 0 0.68 0 0 Z " fill="#55564D" transform="translate(24,36)"/>
<path d="M0 0 C0.66 0.33 1.32 0.66 2 1 C2.33 1.99 2.66 2.98 3 4 C3.99 4.33 4.98 4.66 6 5 C5.34 5.66 4.68 6.32 4 7 C3.01 6.67 2.02 6.34 1 6 C1 5.34 1 4.68 1 4 C0.34 3.67 -0.32 3.34 -1 3 C-0.67 2.01 -0.34 1.02 0 0 Z " fill="#787970" transform="translate(84,22)"/>
<path d="M0 0 C0.99 0 1.98 0 3 0 C3 0.99 3 1.98 3 3 C2.34 3 1.68 3 1 3 C1.33 4.32 1.66 5.64 2 7 C1.01 6.67 0.02 6.34 -1 6 C-0.67 5.01 -0.34 4.02 0 3 C-0.66 2.67 -1.32 2.34 -2 2 C-1.34 2 -0.68 2 0 2 C0 1.34 0 0.68 0 0 Z " fill="#61625A" transform="translate(39,22)"/>
<path d="M0 0 C0.66 0.33 1.32 0.66 2 1 C2 1.66 2 2.32 2 3 C2.66 3.66 3.32 4.32 4 5 C3.01 5.99 2.02 6.98 1 8 C0.01 6.02 -0.98 4.04 -2 2 C-1.34 1.34 -0.68 0.68 0 0 Z " fill="#717169" transform="translate(94,7)"/>
<path d="M0 0 C0.66 0 1.32 0 2 0 C2 0.66 2 1.32 2 2 C2.66 2.33 3.32 2.66 4 3 C4.33 3.66 4.66 4.32 5 5 C4.67 5.66 4.34 6.32 4 7 C3.01 6.67 2.02 6.34 1 6 C0.67 4.02 0.34 2.04 0 0 Z " fill="#63645C" transform="translate(55,6)"/>
<path d="M0 0 C1.98 0 3.96 0 6 0 C6 0.66 6 1.32 6 2 C4.125 3.0625 4.125 3.0625 2 4 C1.34 3.67 0.68 3.34 0 3 C0 2.01 0 1.02 0 0 Z " fill="#606159" transform="translate(74,1)"/>
</svg>
